0
SECTION
2
HEADER
9
$INSUNITS
70
4
9
$INSBASE
10
0.0
20
0.0
30
0.0
9
$EXTMIN
10
0
20
0
9
$EXTMAX
10
155.40716097823474
20
94.78641652049369
0
ENDSEC
0
SECTION
2
TABLES
0
TABLE
2
LTYPE
70
1
0
LTYPE
2
CONTINUOUS
70
64
3
Solid line
72
65
73
0
40
0.0
0
ENDTAB
0
TABLE
2
LAYER
70
1
0
LAYER
2
Layer1
70
64
62
7
6
CONTINUOUS
0
ENDTAB
0
TABLE
2
STYLE
70
0
0
ENDTAB
0
TABLE
2
VIEW
70
0
0
ENDTAB
0
ENDSEC
0
SECTION
2
BLOCKS
0
ENDSEC
0
SECTION
2
ENTITIES
0
POLYLINE
5
8f0
8
Layer1
66
1
10
0.0
20
0.0
30
0.0
70
1
0
VERTEX
5
8f1
8
Layer1
10
0.0000
20
0.0000
30
0.0
0
VERTEX
5
8f2
8
Layer1
10
155.4072
20
0.0000
30
0.0
0
VERTEX
5
8f3
8
Layer1
10
155.4072
20
94.7864
30
0.0
0
VERTEX
5
8f4
8
Layer1
10
0.0000
20
94.7864
30
0.0
0
VERTEX
5
8f5
8
Layer1
10
0.0000
20
0.0000
30
0.0
0
SEQEND
5
8f6
8
Layer1
0
POLYLINE
5
8f7
8
Layer1
66
1
10
0.0
20
0.0
30
0.0
70
1
0
VERTEX
5
8f8
8
Layer1
10
84.2000
20
78.2614
30
0.0
0
VERTEX
5
8f9
8
Layer1
10
85.0000
20
78.2614
30
0.0
0
VERTEX
5
8fa
8
Layer1
10
85.0000
20
79.7614
30
0.0
0
VERTEX
5
8fb
8
Layer1
10
84.2000
20
79.7614
30
0.0
0
VERTEX
5
8fc
8
Layer1
10
84.2000
20
86.7614
30
0.0
0
VERTEX
5
8fd
8
Layer1
10
85.0000
20
86.7614
30
0.0
0
VERTEX
5
8fe
8
Layer1
10
85.0000
20
88.2614
30
0.0
0
VERTEX
5
8ff
8
Layer1
10
84.2000
20
88.2614
30
0.0
0
VERTEX
5
900
8
Layer1
10
84.2000
20
89.2614
30
0.0
0
VERTEX
5
901
8
Layer1
10
72.2000
20
89.2614
30
0.0
0
VERTEX
5
902
8
Layer1
10
72.2000
20
88.2614
30
0.0
0
VERTEX
5
903
8
Layer1
10
71.4000
20
88.2614
30
0.0
0
VERTEX
5
904
8
Layer1
10
71.4000
20
86.7614
30
0.0
0
VERTEX
5
905
8
Layer1
10
72.2000
20
86.7614
30
0.0
0
VERTEX
5
906
8
Layer1
10
72.2000
20
79.7614
30
0.0
0
VERTEX
5
907
8
Layer1
10
71.4000
20
79.7614
30
0.0
0
VERTEX
5
908
8
Layer1
10
71.4000
20
78.2614
30
0.0
0
VERTEX
5
909
8
Layer1
10
72.2000
20
78.2614
30
0.0
0
VERTEX
5
90a
8
Layer1
10
72.2000
20
77.2614
30
0.0
0
VERTEX
5
90b
8
Layer1
10
84.2000
20
77.2614
30
0.0
0
VERTEX
5
90c
8
Layer1
10
84.2000
20
78.2614
30
0.0
0
SEQEND
5
90d
8
Layer1
0
POLYLINE
5
90e
8
Layer1
66
1
10
0.0
20
0.0
30
0.0
70
1
0
VERTEX
5
90f
8
Layer1
10
65.1500
20
75.8804
30
0.0
0
VERTEX
5
910
8
Layer1
10
65.9500
20
75.8804
30
0.0
0
VERTEX
5
911
8
Layer1
10
65.9500
20
77.3804
30
0.0
0
VERTEX
5
912
8
Layer1
10
65.1500
20
77.3804
30
0.0
0
VERTEX
5
913
8
Layer1
10
65.1500
20
84.3804
30
0.0
0
VERTEX
5
914
8
Layer1
10
65.9500
20
84.3804
30
0.0
0
VERTEX
5
915
8
Layer1
10
65.9500
20
85.8804
30
0.0
0
VERTEX
5
916
8
Layer1
10
65.1500
20
85.8804
30
0.0
0
VERTEX
5
917
8
Layer1
10
65.1500
20
86.8804
30
0.0
0
VERTEX
5
918
8
Layer1
10
53.1500
20
86.8804
30
0.0
0
VERTEX
5
919
8
Layer1
10
53.1500
20
85.8804
30
0.0
0
VERTEX
5
91a
8
Layer1
10
52.3500
20
85.8804
30
0.0
0
VERTEX
5
91b
8
Layer1
10
52.3500
20
84.3804
30
0.0
0
VERTEX
5
91c
8
Layer1
10
53.1500
20
84.3804
30
0.0
0
VERTEX
5
91d
8
Layer1
10
53.1500
20
77.3804
30
0.0
0
VERTEX
5
91e
8
Layer1
10
52.3500
20
77.3804
30
0.0
0
VERTEX
5
91f
8
Layer1
10
52.3500
20
75.8804
30
0.0
0
VERTEX
5
920
8
Layer1
10
53.1500
20
75.8804
30
0.0
0
VERTEX
5
921
8
Layer1
10
53.1500
20
74.8804
30
0.0
0
VERTEX
5
922
8
Layer1
10
65.1500
20
74.8804
30
0.0
0
VERTEX
5
923
8
Layer1
10
65.1500
20
75.8804
30
0.0
0
SEQEND
5
924
8
Layer1
0
POLYLINE
5
925
8
Layer1
66
1
10
0.0
20
0.0
30
0.0
70
1
0
VERTEX
5
926
8
Layer1
10
103.2500
20
75.8804
30
0.0
0
VERTEX
5
927
8
Layer1
10
104.0500
20
75.8804
30
0.0
0
VERTEX
5
928
8
Layer1
10
104.0500
20
77.3804
30
0.0
0
VERTEX
5
929
8
Layer1
10
103.2500
20
77.3804
30
0.0
0
VERTEX
5
92a
8
Layer1
10
103.2500
20
84.3804
30
0.0
0
VERTEX
5
92b
8
Layer1
10
104.0500
20
84.3804
30
0.0
0
VERTEX
5
92c
8
Layer1
10
104.0500
20
85.8804
30
0.0
0
VERTEX
5
92d
8
Layer1
10
103.2500
20
85.8804
30
0.0
0
VERTEX
5
92e
8
Layer1
10
103.2500
20
86.8804
30
0.0
0
VERTEX
5
92f
8
Layer1
10
91.2500
20
86.8804
30
0.0
0
VERTEX
5
930
8
Layer1
10
91.2500
20
85.8804
30
0.0
0
VERTEX
5
931
8
Layer1
10
90.4500
20
85.8804
30
0.0
0
VERTEX
5
932
8
Layer1
10
90.4500
20
84.3804
30
0.0
0
VERTEX
5
933
8
Layer1
10
91.2500
20
84.3804
30
0.0
0
VERTEX
5
934
8
Layer1
10
91.2500
20
77.3804
30
0.0
0
VERTEX
5
935
8
Layer1
10
90.4500
20
77.3804
30
0.0
0
VERTEX
5
936
8
Layer1
10
90.4500
20
75.8804
30
0.0
0
VERTEX
5
937
8
Layer1
10
91.2500
20
75.8804
30
0.0
0
VERTEX
5
938
8
Layer1
10
91.2500
20
74.8804
30
0.0
0
VERTEX
5
939
8
Layer1
10
103.2500
20
74.8804
30
0.0
0
VERTEX
5
93a
8
Layer1
10
103.2500
20
75.8804
30
0.0
0
SEQEND
5
93b
8
Layer1
0
POLYLINE
5
93c
8
Layer1
66
1
10
0.0
20
0.0
30
0.0
70
1
0
VERTEX
5
93d
8
Layer1
10
22.2880
20
73.4994
30
0.0
0
VERTEX
5
93e
8
Layer1
10
23.0880
20
73.4994
30
0.0
0
VERTEX
5
93f
8
Layer1
10
23.0880
20
74.9994
30
0.0
0
VERTEX
5
940
8
Layer1
10
22.2880
20
74.9994
30
0.0
0
VERTEX
5
941
8
Layer1
10
22.2880
20
81.9984
30
0.0
0
VERTEX
5
942
8
Layer1
10
23.0880
20
81.9984
30
0.0
0
VERTEX
5
943
8
Layer1
10
23.0880
20
83.4984
30
0.0
0
VERTEX
5
944
8
Layer1
10
22.2880
20
83.4984
30
0.0
0
VERTEX
5
945
8
Layer1
10
22.2880
20
84.4984
30
0.0
0
VERTEX
5
946
8
Layer1
10
10.2880
20
84.4984
30
0.0
0
VERTEX
5
947
8
Layer1
10
10.2880
20
83.4984
30
0.0
0
VERTEX
5
948
8
Layer1
10
9.4880
20
83.4984
30
0.0
0
VERTEX
5
949
8
Layer1
10
9.4880
20
81.9984
30
0.0
0
VERTEX
5
94a
8
Layer1
10
10.2880
20
81.9984
30
0.0
0
VERTEX
5
94b
8
Layer1
10
10.2880
20
74.9994
30
0.0
0
VERTEX
5
94c
8
Layer1
10
9.4880
20
74.9994
30
0.0
0
VERTEX
5
94d
8
Layer1
10
9.4880
20
73.4994
30
0.0
0
VERTEX
5
94e
8
Layer1
10
10.2880
20
73.4994
30
0.0
0
VERTEX
5
94f
8
Layer1
10
10.2880
20
72.4994
30
0.0
0
VERTEX
5
950
8
Layer1
10
22.2880
20
72.4994
30
0.0
0
VERTEX
5
951
8
Layer1
10
22.2880
20
73.4994
30
0.0
0
SEQEND
5
952
8
Layer1
0
POLYLINE
5
953
8
Layer1
66
1
10
0.0
20
0.0
30
0.0
70
1
0
VERTEX
5
954
8
Layer1
10
46.1000
20
73.4994
30
0.0
0
VERTEX
5
955
8
Layer1
10
46.9000
20
73.4994
30
0.0
0
VERTEX
5
956
8
Layer1
10
46.9000
20
74.9994
30
0.0
0
VERTEX
5
957
8
Layer1
10
46.1000
20
74.9994
30
0.0
0
VERTEX
5
958
8
Layer1
10
46.1000
20
81.9984
30
0.0
0
VERTEX
5
959
8
Layer1
10
46.9000
20
81.9984
30
0.0
0
VERTEX
5
95a
8
Layer1
10
46.9000
20
83.4984
30
0.0
0
VERTEX
5
95b
8
Layer1
10
46.1000
20
83.4984
30
0.0
0
VERTEX
5
95c
8
Layer1
10
46.1000
20
84.4984
30
0.0
0
VERTEX
5
95d
8
Layer1
10
34.1000
20
84.4984
30
0.0
0
VERTEX
5
95e
8
Layer1
10
34.1000
20
83.4984
30
0.0
0
VERTEX
5
95f
8
Layer1
10
33.3000
20
83.4984
30
0.0
0
VERTEX
5
960
8
Layer1
10
33.3000
20
81.9984
30
0.0
0
VERTEX
5
961
8
Layer1
10
34.1000
20
81.9984
30
0.0
0
VERTEX
5
962
8
Layer1
10
34.1000
20
74.9994
30
0.0
0
VERTEX
5
963
8
Layer1
10
33.3000
20
74.9994
30
0.0
0
VERTEX
5
964
8
Layer1
10
33.3000
20
73.4994
30
0.0
0
VERTEX
5
965
8
Layer1
10
34.1000
20
73.4994
30
0.0
0
VERTEX
5
966
8
Layer1
10
34.1000
20
72.4994
30
0.0
0
VERTEX
5
967
8
Layer1
10
46.1000
20
72.4994
30
0.0
0
VERTEX
5
968
8
Layer1
10
46.1000
20
73.4994
30
0.0
0
SEQEND
5
969
8
Layer1
0
POLYLINE
5
96a
8
Layer1
66
1
10
0.0
20
0.0
30
0.0
70
1
0
VERTEX
5
96b
8
Layer1
10
122.3000
20
73.4994
30
0.0
0
VERTEX
5
96c
8
Layer1
10
123.1000
20
73.4994
30
0.0
0
VERTEX
5
96d
8
Layer1
10
123.1000
20
74.9994
30
0.0
0
VERTEX
5
96e
8
Layer1
10
122.3000
20
74.9994
30
0.0
0
VERTEX
5
96f
8
Layer1
10
122.3000
20
81.9984
30
0.0
0
VERTEX
5
970
8
Layer1
10
123.1000
20
81.9984
30
0.0
0
VERTEX
5
971
8
Layer1
10
123.1000
20
83.4984
30
0.0
0
VERTEX
5
972
8
Layer1
10
122.3000
20
83.4984
30
0.0
0
VERTEX
5
973
8
Layer1
10
122.3000
20
84.4984
30
0.0
0
VERTEX
5
974
8
Layer1
10
110.3000
20
84.4984
30
0.0
0
VERTEX
5
975
8
Layer1
10
110.3000
20
83.4984
30
0.0
0
VERTEX
5
976
8
Layer1
10
109.5000
20
83.4984
30
0.0
0
VERTEX
5
977
8
Layer1
10
109.5000
20
81.9984
30
0.0
0
VERTEX
5
978
8
Layer1
10
110.3000
20
81.9984
30
0.0
0
VERTEX
5
979
8
Layer1
10
110.3000
20
74.9994
30
0.0
0
VERTEX
5
97a
8
Layer1
10
109.5000
20
74.9994
30
0.0
0
VERTEX
5
97b
8
Layer1
10
109.5000
20
73.4994
30
0.0
0
VERTEX
5
97c
8
Layer1
10
110.3000
20
73.4994
30
0.0
0
VERTEX
5
97d
8
Layer1
10
110.3000
20
72.4994
30
0.0
0
VERTEX
5
97e
8
Layer1
10
122.3000
20
72.4994
30
0.0
0
VERTEX
5
97f
8
Layer1
10
122.3000
20
73.4994
30
0.0
0
SEQEND
5
980
8
Layer1
0
POLYLINE
5
981
8
Layer1
66
1
10
0.0
20
0.0
30
0.0
70
1
0
VERTEX
5
982
8
Layer1
10
84.2000
20
59.2114
30
0.0
0
VERTEX
5
983
8
Layer1
10
85.0000
20
59.2114
30
0.0
0
VERTEX
5
984
8
Layer1
10
85.0000
20
60.7114
30
0.0
0
VERTEX
5
985
8
Layer1
10
84.2000
20
60.7114
30
0.0
0
VERTEX
5
986
8
Layer1
10
84.2000
20
67.7114
30
0.0
0
VERTEX
5
987
8
Layer1
10
85.0000
20
67.7114
30
0.0
0
VERTEX
5
988
8
Layer1
10
85.0000
20
69.2114
30
0.0
0
VERTEX
5
989
8
Layer1
10
84.2000
20
69.2114
30
0.0
0
VERTEX
5
98a
8
Layer1
10
84.2000
20
70.2114
30
0.0
0
VERTEX
5
98b
8
Layer1
10
72.2000
20
70.2114
30
0.0
0
VERTEX
5
98c
8
Layer1
10
72.2000
20
69.2114
30
0.0
0
VERTEX
5
98d
8
Layer1
10
71.4000
20
69.2114
30
0.0
0
VERTEX
5
98e
8
Layer1
10
71.4000
20
67.7114
30
0.0
0
VERTEX
5
98f
8
Layer1
10
72.2000
20
67.7114
30
0.0
0
VERTEX
5
990
8
Layer1
10
72.2000
20
60.7114
30
0.0
0
VERTEX
5
991
8
Layer1
10
71.4000
20
60.7114
30
0.0
0
VERTEX
5
992
8
Layer1
10
71.4000
20
59.2114
30
0.0
0
VERTEX
5
993
8
Layer1
10
72.2000
20
59.2114
30
0.0
0
VERTEX
5
994
8
Layer1
10
72.2000
20
58.2114
30
0.0
0
VERTEX
5
995
8
Layer1
10
84.2000
20
58.2114
30
0.0
0
VERTEX
5
996
8
Layer1
10
84.2000
20
59.2114
30
0.0
0
SEQEND
5
997
8
Layer1
0
POLYLINE
5
998
8
Layer1
66
1
10
0.0
20
0.0
30
0.0
70
1
0
VERTEX
5
999
8
Layer1
10
65.1500
20
56.8304
30
0.0
0
VERTEX
5
99a
8
Layer1
10
65.9500
20
56.8304
30
0.0
0
VERTEX
5
99b
8
Layer1
10
65.9500
20
58.3304
30
0.0
0
VERTEX
5
99c
8
Layer1
10
65.1500
20
58.3304
30
0.0
0
VERTEX
5
99d
8
Layer1
10
65.1500
20
65.3304
30
0.0
0
VERTEX
5
99e
8
Layer1
10
65.9500
20
65.3304
30
0.0
0
VERTEX
5
99f
8
Layer1
10
65.9500
20
66.8304
30
0.0
0
VERTEX
5
9a0
8
Layer1
10
65.1500
20
66.8304
30
0.0
0
VERTEX
5
9a1
8
Layer1
10
65.1500
20
67.8304
30
0.0
0
VERTEX
5
9a2
8
Layer1
10
53.1500
20
67.8304
30
0.0
0
VERTEX
5
9a3
8
Layer1
10
53.1500
20
66.8304
30
0.0
0
VERTEX
5
9a4
8
Layer1
10
52.3500
20
66.8304
30
0.0
0
VERTEX
5
9a5
8
Layer1
10
52.3500
20
65.3304
30
0.0
0
VERTEX
5
9a6
8
Layer1
10
53.1500
20
65.3304
30
0.0
0
VERTEX
5
9a7
8
Layer1
10
53.1500
20
58.3304
30
0.0
0
VERTEX
5
9a8
8
Layer1
10
52.3500
20
58.3304
30
0.0
0
VERTEX
5
9a9
8
Layer1
10
52.3500
20
56.8304
30
0.0
0
VERTEX
5
9aa
8
Layer1
10
53.1500
20
56.8304
30
0.0
0
VERTEX
5
9ab
8
Layer1
10
53.1500
20
55.8304
30
0.0
0
VERTEX
5
9ac
8
Layer1
10
65.1500
20
55.8304
30
0.0
0
VERTEX
5
9ad
8
Layer1
10
65.1500
20
56.8304
30
0.0
0
SEQEND
5
9ae
8
Layer1
0
POLYLINE
5
9af
8
Layer1
66
1
10
0.0
20
0.0
30
0.0
70
1
0
VERTEX
5
9b0
8
Layer1
10
103.2500
20
56.8304
30
0.0
0
VERTEX
5
9b1
8
Layer1
10
104.0500
20
56.8304
30
0.0
0
VERTEX
5
9b2
8
Layer1
10
104.0500
20
58.3304
30
0.0
0
VERTEX
5
9b3
8
Layer1
10
103.2500
20
58.3304
30
0.0
0
VERTEX
5
9b4
8
Layer1
10
103.2500
20
65.3304
30
0.0
0
VERTEX
5
9b5
8
Layer1
10
104.0500
20
65.3304
30
0.0
0
VERTEX
5
9b6
8
Layer1
10
104.0500
20
66.8304
30
0.0
0
VERTEX
5
9b7
8
Layer1
10
103.2500
20
66.8304
30
0.0
0
VERTEX
5
9b8
8
Layer1
10
103.2500
20
67.8304
30
0.0
0
VERTEX
5
9b9
8
Layer1
10
91.2500
20
67.8304
30
0.0
0
VERTEX
5
9ba
8
Layer1
10
91.2500
20
66.8304
30
0.0
0
VERTEX
5
9bb
8
Layer1
10
90.4500
20
66.8304
30
0.0
0
VERTEX
5
9bc
8
Layer1
10
90.4500
20
65.3304
30
0.0
0
VERTEX
5
9bd
8
Layer1
10
91.2500
20
65.3304
30
0.0
0
VERTEX
5
9be
8
Layer1
10
91.2500
20
58.3304
30
0.0
0
VERTEX
5
9bf
8
Layer1
10
90.4500
20
58.3304
30
0.0
0
VERTEX
5
9c0
8
Layer1
10
90.4500
20
56.8304
30
0.0
0
VERTEX
5
9c1
8
Layer1
10
91.2500
20
56.8304
30
0.0
0
VERTEX
5
9c2
8
Layer1
10
91.2500
20
55.8304
30
0.0
0
VERTEX
5
9c3
8
Layer1
10
103.2500
20
55.8304
30
0.0
0
VERTEX
5
9c4
8
Layer1
10
103.2500
20
56.8304
30
0.0
0
SEQEND
5
9c5
8
Layer1
0
POLYLINE
5
9c6
8
Layer1
66
1
10
0.0
20
0.0
30
0.0
70
1
0
VERTEX
5
9c7
8
Layer1
10
22.2880
20
54.4494
30
0.0
0
VERTEX
5
9c8
8
Layer1
10
23.0880
20
54.4494
30
0.0
0
VERTEX
5
9c9
8
Layer1
10
23.0880
20
55.9494
30
0.0
0
VERTEX
5
9ca
8
Layer1
10
22.2880
20
55.9494
30
0.0
0
VERTEX
5
9cb
8
Layer1
10
22.2880
20
62.9494
30
0.0
0
VERTEX
5
9cc
8
Layer1
10
23.0880
20
62.9494
30
0.0
0
VERTEX
5
9cd
8
Layer1
10
23.0880
20
64.4494
30
0.0
0
VERTEX
5
9ce
8
Layer1
10
22.2880
20
64.4494
30
0.0
0
VERTEX
5
9cf
8
Layer1
10
22.2880
20
65.4494
30
0.0
0
VERTEX
5
9d0
8
Layer1
10
10.2880
20
65.4494
30
0.0
0
VERTEX
5
9d1
8
Layer1
10
10.2880
20
64.4494
30
0.0
0
VERTEX
5
9d2
8
Layer1
10
9.4880
20
64.4494
30
0.0
0
VERTEX
5
9d3
8
Layer1
10
9.4880
20
62.9494
30
0.0
0
VERTEX
5
9d4
8
Layer1
10
10.2880
20
62.9494
30
0.0
0
VERTEX
5
9d5
8
Layer1
10
10.2880
20
55.9494
30
0.0
0
VERTEX
5
9d6
8
Layer1
10
9.4880
20
55.9494
30
0.0
0
VERTEX
5
9d7
8
Layer1
10
9.4880
20
54.4494
30
0.0
0
VERTEX
5
9d8
8
Layer1
10
10.2880
20
54.4494
30
0.0
0
VERTEX
5
9d9
8
Layer1
10
10.2880
20
53.4494
30
0.0
0
VERTEX
5
9da
8
Layer1
10
22.2880
20
53.4494
30
0.0
0
VERTEX
5
9db
8
Layer1
10
22.2880
20
54.4494
30
0.0
0
SEQEND
5
9dc
8
Layer1
0
POLYLINE
5
9dd
8
Layer1
66
1
10
0.0
20
0.0
30
0.0
70
1
0
VERTEX
5
9de
8
Layer1
10
46.1000
20
54.4494
30
0.0
0
VERTEX
5
9df
8
Layer1
10
46.9000
20
54.4494
30
0.0
0
VERTEX
5
9e0
8
Layer1
10
46.9000
20
55.9494
30
0.0
0
VERTEX
5
9e1
8
Layer1
10
46.1000
20
55.9494
30
0.0
0
VERTEX
5
9e2
8
Layer1
10
46.1000
20
62.9494
30
0.0
0
VERTEX
5
9e3
8
Layer1
10
46.9000
20
62.9494
30
0.0
0
VERTEX
5
9e4
8
Layer1
10
46.9000
20
64.4494
30
0.0
0
VERTEX
5
9e5
8
Layer1
10
46.1000
20
64.4494
30
0.0
0
VERTEX
5
9e6
8
Layer1
10
46.1000
20
65.4494
30
0.0
0
VERTEX
5
9e7
8
Layer1
10
34.1000
20
65.4494
30
0.0
0
VERTEX
5
9e8
8
Layer1
10
34.1000
20
64.4494
30
0.0
0
VERTEX
5
9e9
8
Layer1
10
33.3000
20
64.4494
30
0.0
0
VERTEX
5
9ea
8
Layer1
10
33.3000
20
62.9494
30
0.0
0
VERTEX
5
9eb
8
Layer1
10
34.1000
20
62.9494
30
0.0
0
VERTEX
5
9ec
8
Layer1
10
34.1000
20
55.9494
30
0.0
0
VERTEX
5
9ed
8
Layer1
10
33.3000
20
55.9494
30
0.0
0
VERTEX
5
9ee
8
Layer1
10
33.3000
20
54.4494
30
0.0
0
VERTEX
5
9ef
8
Layer1
10
34.1000
20
54.4494
30
0.0
0
VERTEX
5
9f0
8
Layer1
10
34.1000
20
53.4494
30
0.0
0
VERTEX
5
9f1
8
Layer1
10
46.1000
20
53.4494
30
0.0
0
VERTEX
5
9f2
8
Layer1
10
46.1000
20
54.4494
30
0.0
0
SEQEND
5
9f3
8
Layer1
0
POLYLINE
5
9f4
8
Layer1
66
1
10
0.0
20
0.0
30
0.0
70
1
0
VERTEX
5
9f5
8
Layer1
10
122.3000
20
54.4494
30
0.0
0
VERTEX
5
9f6
8
Layer1
10
123.1000
20
54.4494
30
0.0
0
VERTEX
5
9f7
8
Layer1
10
123.1000
20
55.9494
30
0.0
0
VERTEX
5
9f8
8
Layer1
10
122.3000
20
55.9494
30
0.0
0
VERTEX
5
9f9
8
Layer1
10
122.3000
20
62.9494
30
0.0
0
VERTEX
5
9fa
8
Layer1
10
123.1000
20
62.9494
30
0.0
0
VERTEX
5
9fb
8
Layer1
10
123.1000
20
64.4494
30
0.0
0
VERTEX
5
9fc
8
Layer1
10
122.3000
20
64.4494
30
0.0
0
VERTEX
5
9fd
8
Layer1
10
122.3000
20
65.4494
30
0.0
0
VERTEX
5
9fe
8
Layer1
10
110.3000
20
65.4494
30
0.0
0
VERTEX
5
9ff
8
Layer1
10
110.3000
20
64.4494
30
0.0
0
VERTEX
5
a00
8
Layer1
10
109.5000
20
64.4494
30
0.0
0
VERTEX
5
a01
8
Layer1
10
109.5000
20
62.9494
30
0.0
0
VERTEX
5
a02
8
Layer1
10
110.3000
20
62.9494
30
0.0
0
VERTEX
5
a03
8
Layer1
10
110.3000
20
55.9494
30
0.0
0
VERTEX
5
a04
8
Layer1
10
109.5000
20
55.9494
30
0.0
0
VERTEX
5
a05
8
Layer1
10
109.5000
20
54.4494
30
0.0
0
VERTEX
5
a06
8
Layer1
10
110.3000
20
54.4494
30
0.0
0
VERTEX
5
a07
8
Layer1
10
110.3000
20
53.4494
30
0.0
0
VERTEX
5
a08
8
Layer1
10
122.3000
20
53.4494
30
0.0
0
VERTEX
5
a09
8
Layer1
10
122.3000
20
54.4494
30
0.0
0
SEQEND
5
a0a
8
Layer1
0
POLYLINE
5
a0b
8
Layer1
66
1
10
0.0
20
0.0
30
0.0
70
1
0
VERTEX
5
a0c
8
Layer1
10
84.2000
20
40.1614
30
0.0
0
VERTEX
5
a0d
8
Layer1
10
85.0000
20
40.1614
30
0.0
0
VERTEX
5
a0e
8
Layer1
10
85.0000
20
41.6614
30
0.0
0
VERTEX
5
a0f
8
Layer1
10
84.2000
20
41.6614
30
0.0
0
VERTEX
5
a10
8
Layer1
10
84.2000
20
48.6614
30
0.0
0
VERTEX
5
a11
8
Layer1
10
85.0000
20
48.6614
30
0.0
0
VERTEX
5
a12
8
Layer1
10
85.0000
20
50.1614
30
0.0
0
VERTEX
5
a13
8
Layer1
10
84.2000
20
50.1614
30
0.0
0
VERTEX
5
a14
8
Layer1
10
84.2000
20
51.1614
30
0.0
0
VERTEX
5
a15
8
Layer1
10
72.2000
20
51.1614
30
0.0
0
VERTEX
5
a16
8
Layer1
10
72.2000
20
50.1614
30
0.0
0
VERTEX
5
a17
8
Layer1
10
71.4000
20
50.1614
30
0.0
0
VERTEX
5
a18
8
Layer1
10
71.4000
20
48.6614
30
0.0
0
VERTEX
5
a19
8
Layer1
10
72.2000
20
48.6614
30
0.0
0
VERTEX
5
a1a
8
Layer1
10
72.2000
20
41.6614
30
0.0
0
VERTEX
5
a1b
8
Layer1
10
71.4000
20
41.6614
30
0.0
0
VERTEX
5
a1c
8
Layer1
10
71.4000
20
40.1614
30
0.0
0
VERTEX
5
a1d
8
Layer1
10
72.2000
20
40.1614
30
0.0
0
VERTEX
5
a1e
8
Layer1
10
72.2000
20
39.1614
30
0.0
0
VERTEX
5
a1f
8
Layer1
10
84.2000
20
39.1614
30
0.0
0
VERTEX
5
a20
8
Layer1
10
84.2000
20
40.1614
30
0.0
0
SEQEND
5
a21
8
Layer1
0
POLYLINE
5
a22
8
Layer1
66
1
10
0.0
20
0.0
30
0.0
70
1
0
VERTEX
5
a23
8
Layer1
10
65.1500
20
37.7804
30
0.0
0
VERTEX
5
a24
8
Layer1
10
65.9500
20
37.7804
30
0.0
0
VERTEX
5
a25
8
Layer1
10
65.9500
20
39.2804
30
0.0
0
VERTEX
5
a26
8
Layer1
10
65.1500
20
39.2804
30
0.0
0
VERTEX
5
a27
8
Layer1
10
65.1500
20
46.2804
30
0.0
0
VERTEX
5
a28
8
Layer1
10
65.9500
20
46.2804
30
0.0
0
VERTEX
5
a29
8
Layer1
10
65.9500
20
47.7804
30
0.0
0
VERTEX
5
a2a
8
Layer1
10
65.1500
20
47.7804
30
0.0
0
VERTEX
5
a2b
8
Layer1
10
65.1500
20
48.7804
30
0.0
0
VERTEX
5
a2c
8
Layer1
10
53.1500
20
48.7804
30
0.0
0
VERTEX
5
a2d
8
Layer1
10
53.1500
20
47.7804
30
0.0
0
VERTEX
5
a2e
8
Layer1
10
52.3500
20
47.7804
30
0.0
0
VERTEX
5
a2f
8
Layer1
10
52.3500
20
46.2804
30
0.0
0
VERTEX
5
a30
8
Layer1
10
53.1500
20
46.2804
30
0.0
0
VERTEX
5
a31
8
Layer1
10
53.1500
20
39.2804
30
0.0
0
VERTEX
5
a32
8
Layer1
10
52.3500
20
39.2804
30
0.0
0
VERTEX
5
a33
8
Layer1
10
52.3500
20
37.7804
30
0.0
0
VERTEX
5
a34
8
Layer1
10
53.1500
20
37.7804
30
0.0
0
VERTEX
5
a35
8
Layer1
10
53.1500
20
36.7804
30
0.0
0
VERTEX
5
a36
8
Layer1
10
65.1500
20
36.7804
30
0.0
0
VERTEX
5
a37
8
Layer1
10
65.1500
20
37.7804
30
0.0
0
SEQEND
5
a38
8
Layer1
0
POLYLINE
5
a39
8
Layer1
66
1
10
0.0
20
0.0
30
0.0
70
1
0
VERTEX
5
a3a
8
Layer1
10
103.2500
20
37.7804
30
0.0
0
VERTEX
5
a3b
8
Layer1
10
104.0500
20
37.7804
30
0.0
0
VERTEX
5
a3c
8
Layer1
10
104.0500
20
39.2804
30
0.0
0
VERTEX
5
a3d
8
Layer1
10
103.2500
20
39.2804
30
0.0
0
VERTEX
5
a3e
8
Layer1
10
103.2500
20
46.2804
30
0.0
0
VERTEX
5
a3f
8
Layer1
10
104.0500
20
46.2804
30
0.0
0
VERTEX
5
a40
8
Layer1
10
104.0500
20
47.7804
30
0.0
0
VERTEX
5
a41
8
Layer1
10
103.2500
20
47.7804
30
0.0
0
VERTEX
5
a42
8
Layer1
10
103.2500
20
48.7804
30
0.0
0
VERTEX
5
a43
8
Layer1
10
91.2500
20
48.7804
30
0.0
0
VERTEX
5
a44
8
Layer1
10
91.2500
20
47.7804
30
0.0
0
VERTEX
5
a45
8
Layer1
10
90.4500
20
47.7804
30
0.0
0
VERTEX
5
a46
8
Layer1
10
90.4500
20
46.2804
30
0.0
0
VERTEX
5
a47
8
Layer1
10
91.2500
20
46.2804
30
0.0
0
VERTEX
5
a48
8
Layer1
10
91.2500
20
39.2804
30
0.0
0
VERTEX
5
a49
8
Layer1
10
90.4500
20
39.2804
30
0.0
0
VERTEX
5
a4a
8
Layer1
10
90.4500
20
37.7804
30
0.0
0
VERTEX
5
a4b
8
Layer1
10
91.2500
20
37.7804
30
0.0
0
VERTEX
5
a4c
8
Layer1
10
91.2500
20
36.7804
30
0.0
0
VERTEX
5
a4d
8
Layer1
10
103.2500
20
36.7804
30
0.0
0
VERTEX
5
a4e
8
Layer1
10
103.2500
20
37.7804
30
0.0
0
SEQEND
5
a4f
8
Layer1
0
POLYLINE
5
a50
8
Layer1
66
1
10
0.0
20
0.0
30
0.0
70
1
0
VERTEX
5
a51
8
Layer1
10
22.2880
20
35.3994
30
0.0
0
VERTEX
5
a52
8
Layer1
10
23.0880
20
35.3994
30
0.0
0
VERTEX
5
a53
8
Layer1
10
23.0880
20
36.8994
30
0.0
0
VERTEX
5
a54
8
Layer1
10
22.2880
20
36.8994
30
0.0
0
VERTEX
5
a55
8
Layer1
10
22.2880
20
43.8994
30
0.0
0
VERTEX
5
a56
8
Layer1
10
23.0880
20
43.8994
30
0.0
0
VERTEX
5
a57
8
Layer1
10
23.0880
20
45.3994
30
0.0
0
VERTEX
5
a58
8
Layer1
10
22.2880
20
45.3994
30
0.0
0
VERTEX
5
a59
8
Layer1
10
22.2880
20
46.3994
30
0.0
0
VERTEX
5
a5a
8
Layer1
10
10.2880
20
46.3994
30
0.0
0
VERTEX
5
a5b
8
Layer1
10
10.2880
20
45.3994
30
0.0
0
VERTEX
5
a5c
8
Layer1
10
9.4880
20
45.3994
30
0.0
0
VERTEX
5
a5d
8
Layer1
10
9.4880
20
43.8994
30
0.0
0
VERTEX
5
a5e
8
Layer1
10
10.2880
20
43.8994
30
0.0
0
VERTEX
5
a5f
8
Layer1
10
10.2880
20
36.8994
30
0.0
0
VERTEX
5
a60
8
Layer1
10
9.4880
20
36.8994
30
0.0
0
VERTEX
5
a61
8
Layer1
10
9.4880
20
35.3994
30
0.0
0
VERTEX
5
a62
8
Layer1
10
10.2880
20
35.3994
30
0.0
0
VERTEX
5
a63
8
Layer1
10
10.2880
20
34.3994
30
0.0
0
VERTEX
5
a64
8
Layer1
10
22.2880
20
34.3994
30
0.0
0
VERTEX
5
a65
8
Layer1
10
22.2880
20
35.3994
30
0.0
0
SEQEND
5
a66
8
Layer1
0
POLYLINE
5
a67
8
Layer1
66
1
10
0.0
20
0.0
30
0.0
70
1
0
VERTEX
5
a68
8
Layer1
10
46.1000
20
35.3994
30
0.0
0
VERTEX
5
a69
8
Layer1
10
46.9000
20
35.3994
30
0.0
0
VERTEX
5
a6a
8
Layer1
10
46.9000
20
36.8994
30
0.0
0
VERTEX
5
a6b
8
Layer1
10
46.1000
20
36.8994
30
0.0
0
VERTEX
5
a6c
8
Layer1
10
46.1000
20
43.8994
30
0.0
0
VERTEX
5
a6d
8
Layer1
10
46.9000
20
43.8994
30
0.0
0
VERTEX
5
a6e
8
Layer1
10
46.9000
20
45.3994
30
0.0
0
VERTEX
5
a6f
8
Layer1
10
46.1000
20
45.3994
30
0.0
0
VERTEX
5
a70
8
Layer1
10
46.1000
20
46.3994
30
0.0
0
VERTEX
5
a71
8
Layer1
10
34.1000
20
46.3994
30
0.0
0
VERTEX
5
a72
8
Layer1
10
34.1000
20
45.3994
30
0.0
0
VERTEX
5
a73
8
Layer1
10
33.3000
20
45.3994
30
0.0
0
VERTEX
5
a74
8
Layer1
10
33.3000
20
43.8994
30
0.0
0
VERTEX
5
a75
8
Layer1
10
34.1000
20
43.8994
30
0.0
0
VERTEX
5
a76
8
Layer1
10
34.1000
20
36.8994
30
0.0
0
VERTEX
5
a77
8
Layer1
10
33.3000
20
36.8994
30
0.0
0
VERTEX
5
a78
8
Layer1
10
33.3000
20
35.3994
30
0.0
0
VERTEX
5
a79
8
Layer1
10
34.1000
20
35.3994
30
0.0
0
VERTEX
5
a7a
8
Layer1
10
34.1000
20
34.3994
30
0.0
0
VERTEX
5
a7b
8
Layer1
10
46.1000
20
34.3994
30
0.0
0
VERTEX
5
a7c
8
Layer1
10
46.1000
20
35.3994
30
0.0
0
SEQEND
5
a7d
8
Layer1
0
POLYLINE
5
a7e
8
Layer1
66
1
10
0.0
20
0.0
30
0.0
70
1
0
VERTEX
5
a7f
8
Layer1
10
122.3000
20
35.3994
30
0.0
0
VERTEX
5
a80
8
Layer1
10
123.1000
20
35.3994
30
0.0
0
VERTEX
5
a81
8
Layer1
10
123.1000
20
36.8994
30
0.0
0
VERTEX
5
a82
8
Layer1
10
122.3000
20
36.8994
30
0.0
0
VERTEX
5
a83
8
Layer1
10
122.3000
20
43.8994
30
0.0
0
VERTEX
5
a84
8
Layer1
10
123.1000
20
43.8994
30
0.0
0
VERTEX
5
a85
8
Layer1
10
123.1000
20
45.3994
30
0.0
0
VERTEX
5
a86
8
Layer1
10
122.3000
20
45.3994
30
0.0
0
VERTEX
5
a87
8
Layer1
10
122.3000
20
46.3994
30
0.0
0
VERTEX
5
a88
8
Layer1
10
110.3000
20
46.3994
30
0.0
0
VERTEX
5
a89
8
Layer1
10
110.3000
20
45.3994
30
0.0
0
VERTEX
5
a8a
8
Layer1
10
109.5000
20
45.3994
30
0.0
0
VERTEX
5
a8b
8
Layer1
10
109.5000
20
43.8994
30
0.0
0
VERTEX
5
a8c
8
Layer1
10
110.3000
20
43.8994
30
0.0
0
VERTEX
5
a8d
8
Layer1
10
110.3000
20
36.8994
30
0.0
0
VERTEX
5
a8e
8
Layer1
10
109.5000
20
36.8994
30
0.0
0
VERTEX
5
a8f
8
Layer1
10
109.5000
20
35.3994
30
0.0
0
VERTEX
5
a90
8
Layer1
10
110.3000
20
35.3994
30
0.0
0
VERTEX
5
a91
8
Layer1
10
110.3000
20
34.3994
30
0.0
0
VERTEX
5
a92
8
Layer1
10
122.3000
20
34.3994
30
0.0
0
VERTEX
5
a93
8
Layer1
10
122.3000
20
35.3994
30
0.0
0
SEQEND
5
a94
8
Layer1
0
POLYLINE
5
a95
8
Layer1
66
1
10
0.0
20
0.0
30
0.0
70
1
0
VERTEX
5
a96
8
Layer1
10
65.1500
20
17.9354
30
0.0
0
VERTEX
5
a97
8
Layer1
10
65.9500
20
17.9354
30
0.0
0
VERTEX
5
a98
8
Layer1
10
65.9500
20
19.4354
30
0.0
0
VERTEX
5
a99
8
Layer1
10
65.1500
20
19.4354
30
0.0
0
VERTEX
5
a9a
8
Layer1
10
65.1500
20
26.4354
30
0.0
0
VERTEX
5
a9b
8
Layer1
10
65.9500
20
26.4354
30
0.0
0
VERTEX
5
a9c
8
Layer1
10
65.9500
20
27.9354
30
0.0
0
VERTEX
5
a9d
8
Layer1
10
65.1500
20
27.9354
30
0.0
0
VERTEX
5
a9e
8
Layer1
10
65.1500
20
28.9354
30
0.0
0
VERTEX
5
a9f
8
Layer1
10
53.1500
20
28.9354
30
0.0
0
VERTEX
5
aa0
8
Layer1
10
53.1500
20
27.9354
30
0.0
0
VERTEX
5
aa1
8
Layer1
10
52.3500
20
27.9354
30
0.0
0
VERTEX
5
aa2
8
Layer1
10
52.3500
20
26.4354
30
0.0
0
VERTEX
5
aa3
8
Layer1
10
53.1500
20
26.4354
30
0.0
0
VERTEX
5
aa4
8
Layer1
10
53.1500
20
19.4354
30
0.0
0
VERTEX
5
aa5
8
Layer1
10
52.3500
20
19.4354
30
0.0
0
VERTEX
5
aa6
8
Layer1
10
52.3500
20
17.9354
30
0.0
0
VERTEX
5
aa7
8
Layer1
10
53.1500
20
17.9354
30
0.0
0
VERTEX
5
aa8
8
Layer1
10
53.1500
20
16.9354
30
0.0
0
VERTEX
5
aa9
8
Layer1
10
65.1500
20
16.9354
30
0.0
0
VERTEX
5
aaa
8
Layer1
10
65.1500
20
17.9354
30
0.0
0
SEQEND
5
aab
8
Layer1
0
POLYLINE
5
aac
8
Layer1
66
1
10
0.0
20
0.0
30
0.0
70
1
0
VERTEX
5
aad
8
Layer1
10
84.2000
20
17.9354
30
0.0
0
VERTEX
5
aae
8
Layer1
10
85.0000
20
17.9354
30
0.0
0
VERTEX
5
aaf
8
Layer1
10
85.0000
20
19.4354
30
0.0
0
VERTEX
5
ab0
8
Layer1
10
84.2000
20
19.4354
30
0.0
0
VERTEX
5
ab1
8
Layer1
10
84.2000
20
26.4354
30
0.0
0
VERTEX
5
ab2
8
Layer1
10
85.0000
20
26.4354
30
0.0
0
VERTEX
5
ab3
8
Layer1
10
85.0000
20
27.9354
30
0.0
0
VERTEX
5
ab4
8
Layer1
10
84.2000
20
27.9354
30
0.0
0
VERTEX
5
ab5
8
Layer1
10
84.2000
20
28.9354
30
0.0
0
VERTEX
5
ab6
8
Layer1
10
72.2000
20
28.9354
30
0.0
0
VERTEX
5
ab7
8
Layer1
10
72.2000
20
27.9354
30
0.0
0
VERTEX
5
ab8
8
Layer1
10
71.4000
20
27.9354
30
0.0
0
VERTEX
5
ab9
8
Layer1
10
71.4000
20
26.4354
30
0.0
0
VERTEX
5
aba
8
Layer1
10
72.2000
20
26.4354
30
0.0
0
VERTEX
5
abb
8
Layer1
10
72.2000
20
19.4354
30
0.0
0
VERTEX
5
abc
8
Layer1
10
71.4000
20
19.4354
30
0.0
0
VERTEX
5
abd
8
Layer1
10
71.4000
20
17.9354
30
0.0
0
VERTEX
5
abe
8
Layer1
10
72.2000
20
17.9354
30
0.0
0
VERTEX
5
abf
8
Layer1
10
72.2000
20
16.9354
30
0.0
0
VERTEX
5
ac0
8
Layer1
10
84.2000
20
16.9354
30
0.0
0
VERTEX
5
ac1
8
Layer1
10
84.2000
20
17.9354
30
0.0
0
SEQEND
5
ac2
8
Layer1
0
POLYLINE
5
ac3
8
Layer1
66
1
10
0.0
20
0.0
30
0.0
70
1
0
VERTEX
5
ac4
8
Layer1
10
103.5549
20
16.2922
30
0.0
0
VERTEX
5
ac5
8
Layer1
10
104.3505
20
16.2086
30
0.0
0
VERTEX
5
ac6
8
Layer1
10
104.5073
20
17.7003
30
0.0
0
VERTEX
5
ac7
8
Layer1
10
103.7117
20
17.7840
30
0.0
0
VERTEX
5
ac8
8
Layer1
10
104.4434
20
24.7456
30
0.0
0
VERTEX
5
ac9
8
Layer1
10
105.2390
20
24.6620
30
0.0
0
VERTEX
5
aca
8
Layer1
10
105.3958
20
26.1538
30
0.0
0
VERTEX
5
acb
8
Layer1
10
104.6002
20
26.2374
30
0.0
0
VERTEX
5
acc
8
Layer1
10
104.7047
20
27.2319
30
0.0
0
VERTEX
5
acd
8
Layer1
10
92.7704
20
28.4863
30
0.0
0
VERTEX
5
ace
8
Layer1
10
92.6659
20
27.4917
30
0.0
0
VERTEX
5
acf
8
Layer1
10
91.8703
20
27.5754
30
0.0
0
VERTEX
5
ad0
8
Layer1
10
91.7135
20
26.0836
30
0.0
0
VERTEX
5
ad1
8
Layer1
10
92.5091
20
26.0000
30
0.0
0
VERTEX
5
ad2
8
Layer1
10
91.7774
20
19.0383
30
0.0
0
VERTEX
5
ad3
8
Layer1
10
90.9818
20
19.1219
30
0.0
0
VERTEX
5
ad4
8
Layer1
10
90.8250
20
17.6301
30
0.0
0
VERTEX
5
ad5
8
Layer1
10
91.6206
20
17.5465
30
0.0
0
VERTEX
5
ad6
8
Layer1
10
91.5161
20
16.5520
30
0.0
0
VERTEX
5
ad7
8
Layer1
10
103.4503
20
15.2977
30
0.0
0
VERTEX
5
ad8
8
Layer1
10
103.5549
20
16.2922
30
0.0
0
SEQEND
5
ad9
8
Layer1
0
POLYLINE
5
ada
8
Layer1
66
1
10
0.0
20
0.0
30
0.0
70
1
0
VERTEX
5
adb
8
Layer1
10
146.2737
20
25.6474
30
0.0
0
VERTEX
5
adc
8
Layer1
10
147.0464
20
25.4404
30
0.0
0
VERTEX
5
add
8
Layer1
10
147.4346
20
26.8893
30
0.0
0
VERTEX
5
ade
8
Layer1
10
146.6619
20
27.0963
30
0.0
0
VERTEX
5
adf
8
Layer1
10
148.4736
20
33.8578
30
0.0
0
VERTEX
5
ae0
8
Layer1
10
149.2464
20
33.6507
30
0.0
0
VERTEX
5
ae1
8
Layer1
10
149.6346
20
35.0996
30
0.0
0
VERTEX
5
ae2
8
Layer1
10
148.8619
20
35.3067
30
0.0
0
VERTEX
5
ae3
8
Layer1
10
149.1207
20
36.2726
30
0.0
0
VERTEX
5
ae4
8
Layer1
10
137.5296
20
39.3784
30
0.0
0
VERTEX
5
ae5
8
Layer1
10
137.2708
20
38.4125
30
0.0
0
VERTEX
5
ae6
8
Layer1
10
136.4980
20
38.6196
30
0.0
0
VERTEX
5
ae7
8
Layer1
10
136.1098
20
37.1707
30
0.0
0
VERTEX
5
ae8
8
Layer1
10
136.8825
20
36.9636
30
0.0
0
VERTEX
5
ae9
8
Layer1
10
135.0708
20
30.2021
30
0.0
0
VERTEX
5
aea
8
Layer1
10
134.2981
20
30.4092
30
0.0
0
VERTEX
5
aeb
8
Layer1
10
133.9098
20
28.9603
30
0.0
0
VERTEX
5
aec
8
Layer1
10
134.6826
20
28.7533
30
0.0
0
VERTEX
5
aed
8
Layer1
10
134.4237
20
27.7873
30
0.0
0
VERTEX
5
aee
8
Layer1
10
146.0149
20
24.6815
30
0.0
0
VERTEX
5
aef
8
Layer1
10
146.2737
20
25.6474
30
0.0
0
SEQEND
5
af0
8
Layer1
0
POLYLINE
5
af1
8
Layer1
66
1
10
0.0
20
0.0
30
0.0
70
1
0
VERTEX
5
af2
8
Layer1
10
140.0013
20
18.7560
30
0.0
0
VERTEX
5
af3
8
Layer1
10
138.3834
20
19.1895
30
0.0
0
VERTEX
5
af4
8
Layer1
10
138.1761
20
18.4158
30
0.0
0
VERTEX
5
af5
8
Layer1
10
135.4956
20
19.1341
30
0.0
0
VERTEX
5
af6
8
Layer1
10
135.5034
20
19.1630
30
0.0
0
VERTEX
5
af7
8
Layer1
10
134.7307
20
19.3701
30
0.0
0
VERTEX
5
af8
8
Layer1
10
134.9895
20
20.3360
30
0.0
0
VERTEX
5
af9
8
Layer1
10
123.3984
20
23.4418
30
0.0
0
VERTEX
5
afa
8
Layer1
10
123.1395
20
22.4759
30
0.0
0
VERTEX
5
afb
8
Layer1
10
122.3668
20
22.6830
30
0.0
0
VERTEX
5
afc
8
Layer1
10
122.3590
20
22.6540
30
0.0
0
VERTEX
5
afd
8
Layer1
10
119.6786
20
23.3722
30
0.0
0
VERTEX
5
afe
8
Layer1
10
119.8859
20
24.1459
30
0.0
0
VERTEX
5
aff
8
Layer1
10
118.2680
20
24.5794
30
0.0
0
VERTEX
5
b00
8
Layer1
10
118.5245
20
25.5367
30
0.0
0
VERTEX
5
b01
8
Layer1
10
117.2688
20
25.8731
30
0.0
0
VERTEX
5
b02
8
Layer1
10
117.0123
20
24.9159
30
0.0
0
VERTEX
5
b03
8
Layer1
10
115.3944
20
25.3494
30
0.0
0
VERTEX
5
b04
8
Layer1
10
113.7713
20
19.2921
30
0.0
0
VERTEX
5
b05
8
Layer1
10
112.9261
20
19.5186
30
0.0
0
VERTEX
5
b06
8
Layer1
10
112.7191
20
18.7458
30
0.0
0
VERTEX
5
b07
8
Layer1
10
113.5642
20
18.5194
30
0.0
0
VERTEX
5
b08
8
Layer1
10
112.7283
20
15.3994
30
0.0
0
VERTEX
5
b09
8
Layer1
10
114.3462
20
14.9659
30
0.0
0
VERTEX
5
b0a
8
Layer1
10
114.1629
20
14.2820
30
0.0
0
VERTEX
5
b0b
8
Layer1
10
115.4186
20
13.9456
30
0.0
0
VERTEX
5
b0c
8
Layer1
10
115.6019
20
14.6294
30
0.0
0
VERTEX
5
b0d
8
Layer1
10
117.2198
20
14.1959
30
0.0
0
VERTEX
5
b0e
8
Layer1
10
117.4271
20
14.9696
30
0.0
0
VERTEX
5
b0f
8
Layer1
10
120.1076
20
14.2514
30
0.0
0
VERTEX
5
b10
8
Layer1
10
119.7786
20
13.0237
30
0.0
0
VERTEX
5
b11
8
Layer1
10
120.5514
20
12.8167
30
0.0
0
VERTEX
5
b12
8
Layer1
10
120.2925
20
11.8507
30
0.0
0
VERTEX
5
b13
8
Layer1
10
131.8836
20
8.7449
30
0.0
0
VERTEX
5
b14
8
Layer1
10
132.1425
20
9.7108
30
0.0
0
VERTEX
5
b15
8
Layer1
10
132.9152
20
9.5038
30
0.0
0
VERTEX
5
b16
8
Layer1
10
133.2442
20
10.7315
30
0.0
0
VERTEX
5
b17
8
Layer1
10
135.9246
20
10.0132
30
0.0
0
VERTEX
5
b18
8
Layer1
10
135.7173
20
9.2395
30
0.0
0
VERTEX
5
b19
8
Layer1
10
137.3352
20
8.8060
30
0.0
0
VERTEX
5
b1a
8
Layer1
10
137.1520
20
8.1221
30
0.0
0
VERTEX
5
b1b
8
Layer1
10
138.4077
20
7.7857
30
0.0
0
VERTEX
5
b1c
8
Layer1
10
138.5909
20
8.4696
30
0.0
0
VERTEX
5
b1d
8
Layer1
10
140.2089
20
8.0360
30
0.0
0
VERTEX
5
b1e
8
Layer1
10
141.0448
20
11.1560
30
0.0
0
VERTEX
5
b1f
8
Layer1
10
141.8900
20
10.9295
30
0.0
0
VERTEX
5
b20
8
Layer1
10
142.0971
20
11.7022
30
0.0
0
VERTEX
5
b21
8
Layer1
10
141.2519
20
11.9287
30
0.0
0
VERTEX
5
b22
8
Layer1
10
142.8749
20
17.9860
30
0.0
0
VERTEX
5
b23
8
Layer1
10
141.2570
20
18.4196
30
0.0
0
VERTEX
5
b24
8
Layer1
10
141.5135
20
19.3768
30
0.0
0
VERTEX
5
b25
8
Layer1
10
140.2578
20
19.7133
30
0.0
0
VERTEX
5
b26
8
Layer1
10
140.0013
20
18.7560
30
0.0
0
SEQEND
5
b27
8
Layer1
0
ENDSEC
0
EOF
