0
SECTION
2
HEADER
9
$INSUNITS
70
4
9
$INSBASE
10
0.0
20
0.0
30
0.0
9
$EXTMIN
10
0
20
0
9
$EXTMAX
10
154.79084812708436
20
97.08652739434453
0
ENDSEC
0
SECTION
2
TABLES
0
TABLE
2
LTYPE
70
1
0
LTYPE
2
CONTINUOUS
70
64
3
Solid line
72
65
73
0
40
0.0
0
ENDTAB
0
TABLE
2
LAYER
70
1
0
LAYER
2
Layer1
70
64
62
7
6
CONTINUOUS
0
ENDTAB
0
TABLE
2
STYLE
70
0
0
ENDTAB
0
TABLE
2
VIEW
70
0
0
ENDTAB
0
ENDSEC
0
SECTION
2
BLOCKS
0
ENDSEC
0
SECTION
2
ENTITIES
0
POLYLINE
5
248
8
Layer1
66
1
10
0.0
20
0.0
30
0.0
70
1
0
VERTEX
5
249
8
Layer1
10
0.0000
20
0.0000
30
0.0
0
VERTEX
5
24a
8
Layer1
10
154.7908
20
0.0000
30
0.0
0
VERTEX
5
24b
8
Layer1
10
154.7908
20
97.0865
30
0.0
0
VERTEX
5
24c
8
Layer1
10
0.0000
20
97.0865
30
0.0
0
VERTEX
5
24d
8
Layer1
10
0.0000
20
0.0000
30
0.0
0
SEQEND
5
24e
8
Layer1
0
POLYLINE
5
24f
8
Layer1
66
1
10
0.0
20
0.0
30
0.0
70
1
0
VERTEX
5
250
8
Layer1
10
84.2000
20
80.5615
30
0.0
0
VERTEX
5
251
8
Layer1
10
85.0000
20
80.5615
30
0.0
0
VERTEX
5
252
8
Layer1
10
85.0000
20
82.0615
30
0.0
0
VERTEX
5
253
8
Layer1
10
84.2000
20
82.0615
30
0.0
0
VERTEX
5
254
8
Layer1
10
84.2000
20
89.0615
30
0.0
0
VERTEX
5
255
8
Layer1
10
85.0000
20
89.0615
30
0.0
0
VERTEX
5
256
8
Layer1
10
85.0000
20
90.5615
30
0.0
0
VERTEX
5
257
8
Layer1
10
84.2000
20
90.5615
30
0.0
0
VERTEX
5
258
8
Layer1
10
84.2000
20
91.5615
30
0.0
0
VERTEX
5
259
8
Layer1
10
72.2000
20
91.5615
30
0.0
0
VERTEX
5
25a
8
Layer1
10
72.2000
20
90.5615
30
0.0
0
VERTEX
5
25b
8
Layer1
10
71.4000
20
90.5615
30
0.0
0
VERTEX
5
25c
8
Layer1
10
71.4000
20
89.0615
30
0.0
0
VERTEX
5
25d
8
Layer1
10
72.2000
20
89.0615
30
0.0
0
VERTEX
5
25e
8
Layer1
10
72.2000
20
82.0615
30
0.0
0
VERTEX
5
25f
8
Layer1
10
71.4000
20
82.0615
30
0.0
0
VERTEX
5
260
8
Layer1
10
71.4000
20
80.5615
30
0.0
0
VERTEX
5
261
8
Layer1
10
72.2000
20
80.5615
30
0.0
0
VERTEX
5
262
8
Layer1
10
72.2000
20
79.5615
30
0.0
0
VERTEX
5
263
8
Layer1
10
84.2000
20
79.5615
30
0.0
0
VERTEX
5
264
8
Layer1
10
84.2000
20
80.5615
30
0.0
0
SEQEND
5
265
8
Layer1
0
POLYLINE
5
266
8
Layer1
66
1
10
0.0
20
0.0
30
0.0
70
1
0
VERTEX
5
267
8
Layer1
10
65.1500
20
78.1805
30
0.0
0
VERTEX
5
268
8
Layer1
10
65.9500
20
78.1805
30
0.0
0
VERTEX
5
269
8
Layer1
10
65.9500
20
79.6805
30
0.0
0
VERTEX
5
26a
8
Layer1
10
65.1500
20
79.6805
30
0.0
0
VERTEX
5
26b
8
Layer1
10
65.1500
20
86.6805
30
0.0
0
VERTEX
5
26c
8
Layer1
10
65.9500
20
86.6805
30
0.0
0
VERTEX
5
26d
8
Layer1
10
65.9500
20
88.1805
30
0.0
0
VERTEX
5
26e
8
Layer1
10
65.1500
20
88.1805
30
0.0
0
VERTEX
5
26f
8
Layer1
10
65.1500
20
89.1805
30
0.0
0
VERTEX
5
270
8
Layer1
10
53.1500
20
89.1805
30
0.0
0
VERTEX
5
271
8
Layer1
10
53.1500
20
88.1805
30
0.0
0
VERTEX
5
272
8
Layer1
10
52.3500
20
88.1805
30
0.0
0
VERTEX
5
273
8
Layer1
10
52.3500
20
86.6805
30
0.0
0
VERTEX
5
274
8
Layer1
10
53.1500
20
86.6805
30
0.0
0
VERTEX
5
275
8
Layer1
10
53.1500
20
79.6805
30
0.0
0
VERTEX
5
276
8
Layer1
10
52.3500
20
79.6805
30
0.0
0
VERTEX
5
277
8
Layer1
10
52.3500
20
78.1805
30
0.0
0
VERTEX
5
278
8
Layer1
10
53.1500
20
78.1805
30
0.0
0
VERTEX
5
279
8
Layer1
10
53.1500
20
77.1805
30
0.0
0
VERTEX
5
27a
8
Layer1
10
65.1500
20
77.1805
30
0.0
0
VERTEX
5
27b
8
Layer1
10
65.1500
20
78.1805
30
0.0
0
SEQEND
5
27c
8
Layer1
0
POLYLINE
5
27d
8
Layer1
66
1
10
0.0
20
0.0
30
0.0
70
1
0
VERTEX
5
27e
8
Layer1
10
103.2500
20
78.1805
30
0.0
0
VERTEX
5
27f
8
Layer1
10
104.0500
20
78.1805
30
0.0
0
VERTEX
5
280
8
Layer1
10
104.0500
20
79.6805
30
0.0
0
VERTEX
5
281
8
Layer1
10
103.2500
20
79.6805
30
0.0
0
VERTEX
5
282
8
Layer1
10
103.2500
20
86.6805
30
0.0
0
VERTEX
5
283
8
Layer1
10
104.0500
20
86.6805
30
0.0
0
VERTEX
5
284
8
Layer1
10
104.0500
20
88.1805
30
0.0
0
VERTEX
5
285
8
Layer1
10
103.2500
20
88.1805
30
0.0
0
VERTEX
5
286
8
Layer1
10
103.2500
20
89.1805
30
0.0
0
VERTEX
5
287
8
Layer1
10
91.2500
20
89.1805
30
0.0
0
VERTEX
5
288
8
Layer1
10
91.2500
20
88.1805
30
0.0
0
VERTEX
5
289
8
Layer1
10
90.4500
20
88.1805
30
0.0
0
VERTEX
5
28a
8
Layer1
10
90.4500
20
86.6805
30
0.0
0
VERTEX
5
28b
8
Layer1
10
91.2500
20
86.6805
30
0.0
0
VERTEX
5
28c
8
Layer1
10
91.2500
20
79.6805
30
0.0
0
VERTEX
5
28d
8
Layer1
10
90.4500
20
79.6805
30
0.0
0
VERTEX
5
28e
8
Layer1
10
90.4500
20
78.1805
30
0.0
0
VERTEX
5
28f
8
Layer1
10
91.2500
20
78.1805
30
0.0
0
VERTEX
5
290
8
Layer1
10
91.2500
20
77.1805
30
0.0
0
VERTEX
5
291
8
Layer1
10
103.2500
20
77.1805
30
0.0
0
VERTEX
5
292
8
Layer1
10
103.2500
20
78.1805
30
0.0
0
SEQEND
5
293
8
Layer1
0
POLYLINE
5
294
8
Layer1
66
1
10
0.0
20
0.0
30
0.0
70
1
0
VERTEX
5
295
8
Layer1
10
22.2880
20
75.7995
30
0.0
0
VERTEX
5
296
8
Layer1
10
23.0880
20
75.7995
30
0.0
0
VERTEX
5
297
8
Layer1
10
23.0880
20
77.2995
30
0.0
0
VERTEX
5
298
8
Layer1
10
22.2880
20
77.2995
30
0.0
0
VERTEX
5
299
8
Layer1
10
22.2880
20
84.2985
30
0.0
0
VERTEX
5
29a
8
Layer1
10
23.0880
20
84.2985
30
0.0
0
VERTEX
5
29b
8
Layer1
10
23.0880
20
85.7985
30
0.0
0
VERTEX
5
29c
8
Layer1
10
22.2880
20
85.7985
30
0.0
0
VERTEX
5
29d
8
Layer1
10
22.2880
20
86.7985
30
0.0
0
VERTEX
5
29e
8
Layer1
10
10.2880
20
86.7985
30
0.0
0
VERTEX
5
29f
8
Layer1
10
10.2880
20
85.7985
30
0.0
0
VERTEX
5
2a0
8
Layer1
10
9.4880
20
85.7985
30
0.0
0
VERTEX
5
2a1
8
Layer1
10
9.4880
20
84.2985
30
0.0
0
VERTEX
5
2a2
8
Layer1
10
10.2880
20
84.2985
30
0.0
0
VERTEX
5
2a3
8
Layer1
10
10.2880
20
77.2995
30
0.0
0
VERTEX
5
2a4
8
Layer1
10
9.4880
20
77.2995
30
0.0
0
VERTEX
5
2a5
8
Layer1
10
9.4880
20
75.7995
30
0.0
0
VERTEX
5
2a6
8
Layer1
10
10.2880
20
75.7995
30
0.0
0
VERTEX
5
2a7
8
Layer1
10
10.2880
20
74.7995
30
0.0
0
VERTEX
5
2a8
8
Layer1
10
22.2880
20
74.7995
30
0.0
0
VERTEX
5
2a9
8
Layer1
10
22.2880
20
75.7995
30
0.0
0
SEQEND
5
2aa
8
Layer1
0
POLYLINE
5
2ab
8
Layer1
66
1
10
0.0
20
0.0
30
0.0
70
1
0
VERTEX
5
2ac
8
Layer1
10
46.1000
20
75.7995
30
0.0
0
VERTEX
5
2ad
8
Layer1
10
46.9000
20
75.7995
30
0.0
0
VERTEX
5
2ae
8
Layer1
10
46.9000
20
77.2995
30
0.0
0
VERTEX
5
2af
8
Layer1
10
46.1000
20
77.2995
30
0.0
0
VERTEX
5
2b0
8
Layer1
10
46.1000
20
84.2985
30
0.0
0
VERTEX
5
2b1
8
Layer1
10
46.9000
20
84.2985
30
0.0
0
VERTEX
5
2b2
8
Layer1
10
46.9000
20
85.7985
30
0.0
0
VERTEX
5
2b3
8
Layer1
10
46.1000
20
85.7985
30
0.0
0
VERTEX
5
2b4
8
Layer1
10
46.1000
20
86.7985
30
0.0
0
VERTEX
5
2b5
8
Layer1
10
34.1000
20
86.7985
30
0.0
0
VERTEX
5
2b6
8
Layer1
10
34.1000
20
85.7985
30
0.0
0
VERTEX
5
2b7
8
Layer1
10
33.3000
20
85.7985
30
0.0
0
VERTEX
5
2b8
8
Layer1
10
33.3000
20
84.2985
30
0.0
0
VERTEX
5
2b9
8
Layer1
10
34.1000
20
84.2985
30
0.0
0
VERTEX
5
2ba
8
Layer1
10
34.1000
20
77.2995
30
0.0
0
VERTEX
5
2bb
8
Layer1
10
33.3000
20
77.2995
30
0.0
0
VERTEX
5
2bc
8
Layer1
10
33.3000
20
75.7995
30
0.0
0
VERTEX
5
2bd
8
Layer1
10
34.1000
20
75.7995
30
0.0
0
VERTEX
5
2be
8
Layer1
10
34.1000
20
74.7995
30
0.0
0
VERTEX
5
2bf
8
Layer1
10
46.1000
20
74.7995
30
0.0
0
VERTEX
5
2c0
8
Layer1
10
46.1000
20
75.7995
30
0.0
0
SEQEND
5
2c1
8
Layer1
0
POLYLINE
5
2c2
8
Layer1
66
1
10
0.0
20
0.0
30
0.0
70
1
0
VERTEX
5
2c3
8
Layer1
10
122.3000
20
75.7995
30
0.0
0
VERTEX
5
2c4
8
Layer1
10
123.1000
20
75.7995
30
0.0
0
VERTEX
5
2c5
8
Layer1
10
123.1000
20
77.2995
30
0.0
0
VERTEX
5
2c6
8
Layer1
10
122.3000
20
77.2995
30
0.0
0
VERTEX
5
2c7
8
Layer1
10
122.3000
20
84.2985
30
0.0
0
VERTEX
5
2c8
8
Layer1
10
123.1000
20
84.2985
30
0.0
0
VERTEX
5
2c9
8
Layer1
10
123.1000
20
85.7985
30
0.0
0
VERTEX
5
2ca
8
Layer1
10
122.3000
20
85.7985
30
0.0
0
VERTEX
5
2cb
8
Layer1
10
122.3000
20
86.7985
30
0.0
0
VERTEX
5
2cc
8
Layer1
10
110.3000
20
86.7985
30
0.0
0
VERTEX
5
2cd
8
Layer1
10
110.3000
20
85.7985
30
0.0
0
VERTEX
5
2ce
8
Layer1
10
109.5000
20
85.7985
30
0.0
0
VERTEX
5
2cf
8
Layer1
10
109.5000
20
84.2985
30
0.0
0
VERTEX
5
2d0
8
Layer1
10
110.3000
20
84.2985
30
0.0
0
VERTEX
5
2d1
8
Layer1
10
110.3000
20
77.2995
30
0.0
0
VERTEX
5
2d2
8
Layer1
10
109.5000
20
77.2995
30
0.0
0
VERTEX
5
2d3
8
Layer1
10
109.5000
20
75.7995
30
0.0
0
VERTEX
5
2d4
8
Layer1
10
110.3000
20
75.7995
30
0.0
0
VERTEX
5
2d5
8
Layer1
10
110.3000
20
74.7995
30
0.0
0
VERTEX
5
2d6
8
Layer1
10
122.3000
20
74.7995
30
0.0
0
VERTEX
5
2d7
8
Layer1
10
122.3000
20
75.7995
30
0.0
0
SEQEND
5
2d8
8
Layer1
0
POLYLINE
5
2d9
8
Layer1
66
1
10
0.0
20
0.0
30
0.0
70
1
0
VERTEX
5
2da
8
Layer1
10
84.2000
20
61.5115
30
0.0
0
VERTEX
5
2db
8
Layer1
10
85.0000
20
61.5115
30
0.0
0
VERTEX
5
2dc
8
Layer1
10
85.0000
20
63.0115
30
0.0
0
VERTEX
5
2dd
8
Layer1
10
84.2000
20
63.0115
30
0.0
0
VERTEX
5
2de
8
Layer1
10
84.2000
20
70.0115
30
0.0
0
VERTEX
5
2df
8
Layer1
10
85.0000
20
70.0115
30
0.0
0
VERTEX
5
2e0
8
Layer1
10
85.0000
20
71.5115
30
0.0
0
VERTEX
5
2e1
8
Layer1
10
84.2000
20
71.5115
30
0.0
0
VERTEX
5
2e2
8
Layer1
10
84.2000
20
72.5115
30
0.0
0
VERTEX
5
2e3
8
Layer1
10
72.2000
20
72.5115
30
0.0
0
VERTEX
5
2e4
8
Layer1
10
72.2000
20
71.5115
30
0.0
0
VERTEX
5
2e5
8
Layer1
10
71.4000
20
71.5115
30
0.0
0
VERTEX
5
2e6
8
Layer1
10
71.4000
20
70.0115
30
0.0
0
VERTEX
5
2e7
8
Layer1
10
72.2000
20
70.0115
30
0.0
0
VERTEX
5
2e8
8
Layer1
10
72.2000
20
63.0115
30
0.0
0
VERTEX
5
2e9
8
Layer1
10
71.4000
20
63.0115
30
0.0
0
VERTEX
5
2ea
8
Layer1
10
71.4000
20
61.5115
30
0.0
0
VERTEX
5
2eb
8
Layer1
10
72.2000
20
61.5115
30
0.0
0
VERTEX
5
2ec
8
Layer1
10
72.2000
20
60.5115
30
0.0
0
VERTEX
5
2ed
8
Layer1
10
84.2000
20
60.5115
30
0.0
0
VERTEX
5
2ee
8
Layer1
10
84.2000
20
61.5115
30
0.0
0
SEQEND
5
2ef
8
Layer1
0
POLYLINE
5
2f0
8
Layer1
66
1
10
0.0
20
0.0
30
0.0
70
1
0
VERTEX
5
2f1
8
Layer1
10
65.1500
20
59.1305
30
0.0
0
VERTEX
5
2f2
8
Layer1
10
65.9500
20
59.1305
30
0.0
0
VERTEX
5
2f3
8
Layer1
10
65.9500
20
60.6305
30
0.0
0
VERTEX
5
2f4
8
Layer1
10
65.1500
20
60.6305
30
0.0
0
VERTEX
5
2f5
8
Layer1
10
65.1500
20
67.6305
30
0.0
0
VERTEX
5
2f6
8
Layer1
10
65.9500
20
67.6305
30
0.0
0
VERTEX
5
2f7
8
Layer1
10
65.9500
20
69.1305
30
0.0
0
VERTEX
5
2f8
8
Layer1
10
65.1500
20
69.1305
30
0.0
0
VERTEX
5
2f9
8
Layer1
10
65.1500
20
70.1305
30
0.0
0
VERTEX
5
2fa
8
Layer1
10
53.1500
20
70.1305
30
0.0
0
VERTEX
5
2fb
8
Layer1
10
53.1500
20
69.1305
30
0.0
0
VERTEX
5
2fc
8
Layer1
10
52.3500
20
69.1305
30
0.0
0
VERTEX
5
2fd
8
Layer1
10
52.3500
20
67.6305
30
0.0
0
VERTEX
5
2fe
8
Layer1
10
53.1500
20
67.6305
30
0.0
0
VERTEX
5
2ff
8
Layer1
10
53.1500
20
60.6305
30
0.0
0
VERTEX
5
300
8
Layer1
10
52.3500
20
60.6305
30
0.0
0
VERTEX
5
301
8
Layer1
10
52.3500
20
59.1305
30
0.0
0
VERTEX
5
302
8
Layer1
10
53.1500
20
59.1305
30
0.0
0
VERTEX
5
303
8
Layer1
10
53.1500
20
58.1305
30
0.0
0
VERTEX
5
304
8
Layer1
10
65.1500
20
58.1305
30
0.0
0
VERTEX
5
305
8
Layer1
10
65.1500
20
59.1305
30
0.0
0
SEQEND
5
306
8
Layer1
0
POLYLINE
5
307
8
Layer1
66
1
10
0.0
20
0.0
30
0.0
70
1
0
VERTEX
5
308
8
Layer1
10
103.2500
20
59.1305
30
0.0
0
VERTEX
5
309
8
Layer1
10
104.0500
20
59.1305
30
0.0
0
VERTEX
5
30a
8
Layer1
10
104.0500
20
60.6305
30
0.0
0
VERTEX
5
30b
8
Layer1
10
103.2500
20
60.6305
30
0.0
0
VERTEX
5
30c
8
Layer1
10
103.2500
20
67.6305
30
0.0
0
VERTEX
5
30d
8
Layer1
10
104.0500
20
67.6305
30
0.0
0
VERTEX
5
30e
8
Layer1
10
104.0500
20
69.1305
30
0.0
0
VERTEX
5
30f
8
Layer1
10
103.2500
20
69.1305
30
0.0
0
VERTEX
5
310
8
Layer1
10
103.2500
20
70.1305
30
0.0
0
VERTEX
5
311
8
Layer1
10
91.2500
20
70.1305
30
0.0
0
VERTEX
5
312
8
Layer1
10
91.2500
20
69.1305
30
0.0
0
VERTEX
5
313
8
Layer1
10
90.4500
20
69.1305
30
0.0
0
VERTEX
5
314
8
Layer1
10
90.4500
20
67.6305
30
0.0
0
VERTEX
5
315
8
Layer1
10
91.2500
20
67.6305
30
0.0
0
VERTEX
5
316
8
Layer1
10
91.2500
20
60.6305
30
0.0
0
VERTEX
5
317
8
Layer1
10
90.4500
20
60.6305
30
0.0
0
VERTEX
5
318
8
Layer1
10
90.4500
20
59.1305
30
0.0
0
VERTEX
5
319
8
Layer1
10
91.2500
20
59.1305
30
0.0
0
VERTEX
5
31a
8
Layer1
10
91.2500
20
58.1305
30
0.0
0
VERTEX
5
31b
8
Layer1
10
103.2500
20
58.1305
30
0.0
0
VERTEX
5
31c
8
Layer1
10
103.2500
20
59.1305
30
0.0
0
SEQEND
5
31d
8
Layer1
0
POLYLINE
5
31e
8
Layer1
66
1
10
0.0
20
0.0
30
0.0
70
1
0
VERTEX
5
31f
8
Layer1
10
22.2880
20
56.7495
30
0.0
0
VERTEX
5
320
8
Layer1
10
23.0880
20
56.7495
30
0.0
0
VERTEX
5
321
8
Layer1
10
23.0880
20
58.2495
30
0.0
0
VERTEX
5
322
8
Layer1
10
22.2880
20
58.2495
30
0.0
0
VERTEX
5
323
8
Layer1
10
22.2880
20
65.2495
30
0.0
0
VERTEX
5
324
8
Layer1
10
23.0880
20
65.2495
30
0.0
0
VERTEX
5
325
8
Layer1
10
23.0880
20
66.7495
30
0.0
0
VERTEX
5
326
8
Layer1
10
22.2880
20
66.7495
30
0.0
0
VERTEX
5
327
8
Layer1
10
22.2880
20
67.7495
30
0.0
0
VERTEX
5
328
8
Layer1
10
10.2880
20
67.7495
30
0.0
0
VERTEX
5
329
8
Layer1
10
10.2880
20
66.7495
30
0.0
0
VERTEX
5
32a
8
Layer1
10
9.4880
20
66.7495
30
0.0
0
VERTEX
5
32b
8
Layer1
10
9.4880
20
65.2495
30
0.0
0
VERTEX
5
32c
8
Layer1
10
10.2880
20
65.2495
30
0.0
0
VERTEX
5
32d
8
Layer1
10
10.2880
20
58.2495
30
0.0
0
VERTEX
5
32e
8
Layer1
10
9.4880
20
58.2495
30
0.0
0
VERTEX
5
32f
8
Layer1
10
9.4880
20
56.7495
30
0.0
0
VERTEX
5
330
8
Layer1
10
10.2880
20
56.7495
30
0.0
0
VERTEX
5
331
8
Layer1
10
10.2880
20
55.7495
30
0.0
0
VERTEX
5
332
8
Layer1
10
22.2880
20
55.7495
30
0.0
0
VERTEX
5
333
8
Layer1
10
22.2880
20
56.7495
30
0.0
0
SEQEND
5
334
8
Layer1
0
POLYLINE
5
335
8
Layer1
66
1
10
0.0
20
0.0
30
0.0
70
1
0
VERTEX
5
336
8
Layer1
10
46.1000
20
56.7495
30
0.0
0
VERTEX
5
337
8
Layer1
10
46.9000
20
56.7495
30
0.0
0
VERTEX
5
338
8
Layer1
10
46.9000
20
58.2495
30
0.0
0
VERTEX
5
339
8
Layer1
10
46.1000
20
58.2495
30
0.0
0
VERTEX
5
33a
8
Layer1
10
46.1000
20
65.2495
30
0.0
0
VERTEX
5
33b
8
Layer1
10
46.9000
20
65.2495
30
0.0
0
VERTEX
5
33c
8
Layer1
10
46.9000
20
66.7495
30
0.0
0
VERTEX
5
33d
8
Layer1
10
46.1000
20
66.7495
30
0.0
0
VERTEX
5
33e
8
Layer1
10
46.1000
20
67.7495
30
0.0
0
VERTEX
5
33f
8
Layer1
10
34.1000
20
67.7495
30
0.0
0
VERTEX
5
340
8
Layer1
10
34.1000
20
66.7495
30
0.0
0
VERTEX
5
341
8
Layer1
10
33.3000
20
66.7495
30
0.0
0
VERTEX
5
342
8
Layer1
10
33.3000
20
65.2495
30
0.0
0
VERTEX
5
343
8
Layer1
10
34.1000
20
65.2495
30
0.0
0
VERTEX
5
344
8
Layer1
10
34.1000
20
58.2495
30
0.0
0
VERTEX
5
345
8
Layer1
10
33.3000
20
58.2495
30
0.0
0
VERTEX
5
346
8
Layer1
10
33.3000
20
56.7495
30
0.0
0
VERTEX
5
347
8
Layer1
10
34.1000
20
56.7495
30
0.0
0
VERTEX
5
348
8
Layer1
10
34.1000
20
55.7495
30
0.0
0
VERTEX
5
349
8
Layer1
10
46.1000
20
55.7495
30
0.0
0
VERTEX
5
34a
8
Layer1
10
46.1000
20
56.7495
30
0.0
0
SEQEND
5
34b
8
Layer1
0
POLYLINE
5
34c
8
Layer1
66
1
10
0.0
20
0.0
30
0.0
70
1
0
VERTEX
5
34d
8
Layer1
10
122.3000
20
56.7495
30
0.0
0
VERTEX
5
34e
8
Layer1
10
123.1000
20
56.7495
30
0.0
0
VERTEX
5
34f
8
Layer1
10
123.1000
20
58.2495
30
0.0
0
VERTEX
5
350
8
Layer1
10
122.3000
20
58.2495
30
0.0
0
VERTEX
5
351
8
Layer1
10
122.3000
20
65.2495
30
0.0
0
VERTEX
5
352
8
Layer1
10
123.1000
20
65.2495
30
0.0
0
VERTEX
5
353
8
Layer1
10
123.1000
20
66.7495
30
0.0
0
VERTEX
5
354
8
Layer1
10
122.3000
20
66.7495
30
0.0
0
VERTEX
5
355
8
Layer1
10
122.3000
20
67.7495
30
0.0
0
VERTEX
5
356
8
Layer1
10
110.3000
20
67.7495
30
0.0
0
VERTEX
5
357
8
Layer1
10
110.3000
20
66.7495
30
0.0
0
VERTEX
5
358
8
Layer1
10
109.5000
20
66.7495
30
0.0
0
VERTEX
5
359
8
Layer1
10
109.5000
20
65.2495
30
0.0
0
VERTEX
5
35a
8
Layer1
10
110.3000
20
65.2495
30
0.0
0
VERTEX
5
35b
8
Layer1
10
110.3000
20
58.2495
30
0.0
0
VERTEX
5
35c
8
Layer1
10
109.5000
20
58.2495
30
0.0
0
VERTEX
5
35d
8
Layer1
10
109.5000
20
56.7495
30
0.0
0
VERTEX
5
35e
8
Layer1
10
110.3000
20
56.7495
30
0.0
0
VERTEX
5
35f
8
Layer1
10
110.3000
20
55.7495
30
0.0
0
VERTEX
5
360
8
Layer1
10
122.3000
20
55.7495
30
0.0
0
VERTEX
5
361
8
Layer1
10
122.3000
20
56.7495
30
0.0
0
SEQEND
5
362
8
Layer1
0
POLYLINE
5
363
8
Layer1
66
1
10
0.0
20
0.0
30
0.0
70
1
0
VERTEX
5
364
8
Layer1
10
84.2000
20
42.4615
30
0.0
0
VERTEX
5
365
8
Layer1
10
85.0000
20
42.4615
30
0.0
0
VERTEX
5
366
8
Layer1
10
85.0000
20
43.9615
30
0.0
0
VERTEX
5
367
8
Layer1
10
84.2000
20
43.9615
30
0.0
0
VERTEX
5
368
8
Layer1
10
84.2000
20
50.9615
30
0.0
0
VERTEX
5
369
8
Layer1
10
85.0000
20
50.9615
30
0.0
0
VERTEX
5
36a
8
Layer1
10
85.0000
20
52.4615
30
0.0
0
VERTEX
5
36b
8
Layer1
10
84.2000
20
52.4615
30
0.0
0
VERTEX
5
36c
8
Layer1
10
84.2000
20
53.4615
30
0.0
0
VERTEX
5
36d
8
Layer1
10
72.2000
20
53.4615
30
0.0
0
VERTEX
5
36e
8
Layer1
10
72.2000
20
52.4615
30
0.0
0
VERTEX
5
36f
8
Layer1
10
71.4000
20
52.4615
30
0.0
0
VERTEX
5
370
8
Layer1
10
71.4000
20
50.9615
30
0.0
0
VERTEX
5
371
8
Layer1
10
72.2000
20
50.9615
30
0.0
0
VERTEX
5
372
8
Layer1
10
72.2000
20
43.9615
30
0.0
0
VERTEX
5
373
8
Layer1
10
71.4000
20
43.9615
30
0.0
0
VERTEX
5
374
8
Layer1
10
71.4000
20
42.4615
30
0.0
0
VERTEX
5
375
8
Layer1
10
72.2000
20
42.4615
30
0.0
0
VERTEX
5
376
8
Layer1
10
72.2000
20
41.4615
30
0.0
0
VERTEX
5
377
8
Layer1
10
84.2000
20
41.4615
30
0.0
0
VERTEX
5
378
8
Layer1
10
84.2000
20
42.4615
30
0.0
0
SEQEND
5
379
8
Layer1
0
POLYLINE
5
37a
8
Layer1
66
1
10
0.0
20
0.0
30
0.0
70
1
0
VERTEX
5
37b
8
Layer1
10
65.1500
20
40.0805
30
0.0
0
VERTEX
5
37c
8
Layer1
10
65.9500
20
40.0805
30
0.0
0
VERTEX
5
37d
8
Layer1
10
65.9500
20
41.5805
30
0.0
0
VERTEX
5
37e
8
Layer1
10
65.1500
20
41.5805
30
0.0
0
VERTEX
5
37f
8
Layer1
10
65.1500
20
48.5805
30
0.0
0
VERTEX
5
380
8
Layer1
10
65.9500
20
48.5805
30
0.0
0
VERTEX
5
381
8
Layer1
10
65.9500
20
50.0805
30
0.0
0
VERTEX
5
382
8
Layer1
10
65.1500
20
50.0805
30
0.0
0
VERTEX
5
383
8
Layer1
10
65.1500
20
51.0805
30
0.0
0
VERTEX
5
384
8
Layer1
10
53.1500
20
51.0805
30
0.0
0
VERTEX
5
385
8
Layer1
10
53.1500
20
50.0805
30
0.0
0
VERTEX
5
386
8
Layer1
10
52.3500
20
50.0805
30
0.0
0
VERTEX
5
387
8
Layer1
10
52.3500
20
48.5805
30
0.0
0
VERTEX
5
388
8
Layer1
10
53.1500
20
48.5805
30
0.0
0
VERTEX
5
389
8
Layer1
10
53.1500
20
41.5805
30
0.0
0
VERTEX
5
38a
8
Layer1
10
52.3500
20
41.5805
30
0.0
0
VERTEX
5
38b
8
Layer1
10
52.3500
20
40.0805
30
0.0
0
VERTEX
5
38c
8
Layer1
10
53.1500
20
40.0805
30
0.0
0
VERTEX
5
38d
8
Layer1
10
53.1500
20
39.0805
30
0.0
0
VERTEX
5
38e
8
Layer1
10
65.1500
20
39.0805
30
0.0
0
VERTEX
5
38f
8
Layer1
10
65.1500
20
40.0805
30
0.0
0
SEQEND
5
390
8
Layer1
0
POLYLINE
5
391
8
Layer1
66
1
10
0.0
20
0.0
30
0.0
70
1
0
VERTEX
5
392
8
Layer1
10
103.2500
20
40.0805
30
0.0
0
VERTEX
5
393
8
Layer1
10
104.0500
20
40.0805
30
0.0
0
VERTEX
5
394
8
Layer1
10
104.0500
20
41.5805
30
0.0
0
VERTEX
5
395
8
Layer1
10
103.2500
20
41.5805
30
0.0
0
VERTEX
5
396
8
Layer1
10
103.2500
20
48.5805
30
0.0
0
VERTEX
5
397
8
Layer1
10
104.0500
20
48.5805
30
0.0
0
VERTEX
5
398
8
Layer1
10
104.0500
20
50.0805
30
0.0
0
VERTEX
5
399
8
Layer1
10
103.2500
20
50.0805
30
0.0
0
VERTEX
5
39a
8
Layer1
10
103.2500
20
51.0805
30
0.0
0
VERTEX
5
39b
8
Layer1
10
91.2500
20
51.0805
30
0.0
0
VERTEX
5
39c
8
Layer1
10
91.2500
20
50.0805
30
0.0
0
VERTEX
5
39d
8
Layer1
10
90.4500
20
50.0805
30
0.0
0
VERTEX
5
39e
8
Layer1
10
90.4500
20
48.5805
30
0.0
0
VERTEX
5
39f
8
Layer1
10
91.2500
20
48.5805
30
0.0
0
VERTEX
5
3a0
8
Layer1
10
91.2500
20
41.5805
30
0.0
0
VERTEX
5
3a1
8
Layer1
10
90.4500
20
41.5805
30
0.0
0
VERTEX
5
3a2
8
Layer1
10
90.4500
20
40.0805
30
0.0
0
VERTEX
5
3a3
8
Layer1
10
91.2500
20
40.0805
30
0.0
0
VERTEX
5
3a4
8
Layer1
10
91.2500
20
39.0805
30
0.0
0
VERTEX
5
3a5
8
Layer1
10
103.2500
20
39.0805
30
0.0
0
VERTEX
5
3a6
8
Layer1
10
103.2500
20
40.0805
30
0.0
0
SEQEND
5
3a7
8
Layer1
0
POLYLINE
5
3a8
8
Layer1
66
1
10
0.0
20
0.0
30
0.0
70
1
0
VERTEX
5
3a9
8
Layer1
10
22.2880
20
37.6995
30
0.0
0
VERTEX
5
3aa
8
Layer1
10
23.0880
20
37.6995
30
0.0
0
VERTEX
5
3ab
8
Layer1
10
23.0880
20
39.1995
30
0.0
0
VERTEX
5
3ac
8
Layer1
10
22.2880
20
39.1995
30
0.0
0
VERTEX
5
3ad
8
Layer1
10
22.2880
20
46.1995
30
0.0
0
VERTEX
5
3ae
8
Layer1
10
23.0880
20
46.1995
30
0.0
0
VERTEX
5
3af
8
Layer1
10
23.0880
20
47.6995
30
0.0
0
VERTEX
5
3b0
8
Layer1
10
22.2880
20
47.6995
30
0.0
0
VERTEX
5
3b1
8
Layer1
10
22.2880
20
48.6995
30
0.0
0
VERTEX
5
3b2
8
Layer1
10
10.2880
20
48.6995
30
0.0
0
VERTEX
5
3b3
8
Layer1
10
10.2880
20
47.6995
30
0.0
0
VERTEX
5
3b4
8
Layer1
10
9.4880
20
47.6995
30
0.0
0
VERTEX
5
3b5
8
Layer1
10
9.4880
20
46.1995
30
0.0
0
VERTEX
5
3b6
8
Layer1
10
10.2880
20
46.1995
30
0.0
0
VERTEX
5
3b7
8
Layer1
10
10.2880
20
39.1995
30
0.0
0
VERTEX
5
3b8
8
Layer1
10
9.4880
20
39.1995
30
0.0
0
VERTEX
5
3b9
8
Layer1
10
9.4880
20
37.6995
30
0.0
0
VERTEX
5
3ba
8
Layer1
10
10.2880
20
37.6995
30
0.0
0
VERTEX
5
3bb
8
Layer1
10
10.2880
20
36.6995
30
0.0
0
VERTEX
5
3bc
8
Layer1
10
22.2880
20
36.6995
30
0.0
0
VERTEX
5
3bd
8
Layer1
10
22.2880
20
37.6995
30
0.0
0
SEQEND
5
3be
8
Layer1
0
POLYLINE
5
3bf
8
Layer1
66
1
10
0.0
20
0.0
30
0.0
70
1
0
VERTEX
5
3c0
8
Layer1
10
46.1000
20
37.6995
30
0.0
0
VERTEX
5
3c1
8
Layer1
10
46.9000
20
37.6995
30
0.0
0
VERTEX
5
3c2
8
Layer1
10
46.9000
20
39.1995
30
0.0
0
VERTEX
5
3c3
8
Layer1
10
46.1000
20
39.1995
30
0.0
0
VERTEX
5
3c4
8
Layer1
10
46.1000
20
46.1995
30
0.0
0
VERTEX
5
3c5
8
Layer1
10
46.9000
20
46.1995
30
0.0
0
VERTEX
5
3c6
8
Layer1
10
46.9000
20
47.6995
30
0.0
0
VERTEX
5
3c7
8
Layer1
10
46.1000
20
47.6995
30
0.0
0
VERTEX
5
3c8
8
Layer1
10
46.1000
20
48.6995
30
0.0
0
VERTEX
5
3c9
8
Layer1
10
34.1000
20
48.6995
30
0.0
0
VERTEX
5
3ca
8
Layer1
10
34.1000
20
47.6995
30
0.0
0
VERTEX
5
3cb
8
Layer1
10
33.3000
20
47.6995
30
0.0
0
VERTEX
5
3cc
8
Layer1
10
33.3000
20
46.1995
30
0.0
0
VERTEX
5
3cd
8
Layer1
10
34.1000
20
46.1995
30
0.0
0
VERTEX
5
3ce
8
Layer1
10
34.1000
20
39.1995
30
0.0
0
VERTEX
5
3cf
8
Layer1
10
33.3000
20
39.1995
30
0.0
0
VERTEX
5
3d0
8
Layer1
10
33.3000
20
37.6995
30
0.0
0
VERTEX
5
3d1
8
Layer1
10
34.1000
20
37.6995
30
0.0
0
VERTEX
5
3d2
8
Layer1
10
34.1000
20
36.6995
30
0.0
0
VERTEX
5
3d3
8
Layer1
10
46.1000
20
36.6995
30
0.0
0
VERTEX
5
3d4
8
Layer1
10
46.1000
20
37.6995
30
0.0
0
SEQEND
5
3d5
8
Layer1
0
POLYLINE
5
3d6
8
Layer1
66
1
10
0.0
20
0.0
30
0.0
70
1
0
VERTEX
5
3d7
8
Layer1
10
122.3000
20
37.6995
30
0.0
0
VERTEX
5
3d8
8
Layer1
10
123.1000
20
37.6995
30
0.0
0
VERTEX
5
3d9
8
Layer1
10
123.1000
20
39.1995
30
0.0
0
VERTEX
5
3da
8
Layer1
10
122.3000
20
39.1995
30
0.0
0
VERTEX
5
3db
8
Layer1
10
122.3000
20
46.1995
30
0.0
0
VERTEX
5
3dc
8
Layer1
10
123.1000
20
46.1995
30
0.0
0
VERTEX
5
3dd
8
Layer1
10
123.1000
20
47.6995
30
0.0
0
VERTEX
5
3de
8
Layer1
10
122.3000
20
47.6995
30
0.0
0
VERTEX
5
3df
8
Layer1
10
122.3000
20
48.6995
30
0.0
0
VERTEX
5
3e0
8
Layer1
10
110.3000
20
48.6995
30
0.0
0
VERTEX
5
3e1
8
Layer1
10
110.3000
20
47.6995
30
0.0
0
VERTEX
5
3e2
8
Layer1
10
109.5000
20
47.6995
30
0.0
0
VERTEX
5
3e3
8
Layer1
10
109.5000
20
46.1995
30
0.0
0
VERTEX
5
3e4
8
Layer1
10
110.3000
20
46.1995
30
0.0
0
VERTEX
5
3e5
8
Layer1
10
110.3000
20
39.1995
30
0.0
0
VERTEX
5
3e6
8
Layer1
10
109.5000
20
39.1995
30
0.0
0
VERTEX
5
3e7
8
Layer1
10
109.5000
20
37.6995
30
0.0
0
VERTEX
5
3e8
8
Layer1
10
110.3000
20
37.6995
30
0.0
0
VERTEX
5
3e9
8
Layer1
10
110.3000
20
36.6995
30
0.0
0
VERTEX
5
3ea
8
Layer1
10
122.3000
20
36.6995
30
0.0
0
VERTEX
5
3eb
8
Layer1
10
122.3000
20
37.6995
30
0.0
0
SEQEND
5
3ec
8
Layer1
0
POLYLINE
5
3ed
8
Layer1
66
1
10
0.0
20
0.0
30
0.0
70
1
0
VERTEX
5
3ee
8
Layer1
10
65.1500
20
18.6495
30
0.0
0
VERTEX
5
3ef
8
Layer1
10
65.9500
20
18.6495
30
0.0
0
VERTEX
5
3f0
8
Layer1
10
65.9500
20
20.1495
30
0.0
0
VERTEX
5
3f1
8
Layer1
10
65.1500
20
20.1495
30
0.0
0
VERTEX
5
3f2
8
Layer1
10
65.1500
20
27.1495
30
0.0
0
VERTEX
5
3f3
8
Layer1
10
65.9500
20
27.1495
30
0.0
0
VERTEX
5
3f4
8
Layer1
10
65.9500
20
28.6495
30
0.0
0
VERTEX
5
3f5
8
Layer1
10
65.1500
20
28.6495
30
0.0
0
VERTEX
5
3f6
8
Layer1
10
65.1500
20
29.6495
30
0.0
0
VERTEX
5
3f7
8
Layer1
10
53.1500
20
29.6495
30
0.0
0
VERTEX
5
3f8
8
Layer1
10
53.1500
20
28.6495
30
0.0
0
VERTEX
5
3f9
8
Layer1
10
52.3500
20
28.6495
30
0.0
0
VERTEX
5
3fa
8
Layer1
10
52.3500
20
27.1495
30
0.0
0
VERTEX
5
3fb
8
Layer1
10
53.1500
20
27.1495
30
0.0
0
VERTEX
5
3fc
8
Layer1
10
53.1500
20
20.1495
30
0.0
0
VERTEX
5
3fd
8
Layer1
10
52.3500
20
20.1495
30
0.0
0
VERTEX
5
3fe
8
Layer1
10
52.3500
20
18.6495
30
0.0
0
VERTEX
5
3ff
8
Layer1
10
53.1500
20
18.6495
30
0.0
0
VERTEX
5
400
8
Layer1
10
53.1500
20
17.6495
30
0.0
0
VERTEX
5
401
8
Layer1
10
65.1500
20
17.6495
30
0.0
0
VERTEX
5
402
8
Layer1
10
65.1500
20
18.6495
30
0.0
0
SEQEND
5
403
8
Layer1
0
POLYLINE
5
404
8
Layer1
66
1
10
0.0
20
0.0
30
0.0
70
1
0
VERTEX
5
405
8
Layer1
10
84.2000
20
18.6495
30
0.0
0
VERTEX
5
406
8
Layer1
10
85.0000
20
18.6495
30
0.0
0
VERTEX
5
407
8
Layer1
10
85.0000
20
20.1495
30
0.0
0
VERTEX
5
408
8
Layer1
10
84.2000
20
20.1495
30
0.0
0
VERTEX
5
409
8
Layer1
10
84.2000
20
27.1495
30
0.0
0
VERTEX
5
40a
8
Layer1
10
85.0000
20
27.1495
30
0.0
0
VERTEX
5
40b
8
Layer1
10
85.0000
20
28.6495
30
0.0
0
VERTEX
5
40c
8
Layer1
10
84.2000
20
28.6495
30
0.0
0
VERTEX
5
40d
8
Layer1
10
84.2000
20
29.6495
30
0.0
0
VERTEX
5
40e
8
Layer1
10
72.2000
20
29.6495
30
0.0
0
VERTEX
5
40f
8
Layer1
10
72.2000
20
28.6495
30
0.0
0
VERTEX
5
410
8
Layer1
10
71.4000
20
28.6495
30
0.0
0
VERTEX
5
411
8
Layer1
10
71.4000
20
27.1495
30
0.0
0
VERTEX
5
412
8
Layer1
10
72.2000
20
27.1495
30
0.0
0
VERTEX
5
413
8
Layer1
10
72.2000
20
20.1495
30
0.0
0
VERTEX
5
414
8
Layer1
10
71.4000
20
20.1495
30
0.0
0
VERTEX
5
415
8
Layer1
10
71.4000
20
18.6495
30
0.0
0
VERTEX
5
416
8
Layer1
10
72.2000
20
18.6495
30
0.0
0
VERTEX
5
417
8
Layer1
10
72.2000
20
17.6495
30
0.0
0
VERTEX
5
418
8
Layer1
10
84.2000
20
17.6495
30
0.0
0
VERTEX
5
419
8
Layer1
10
84.2000
20
18.6495
30
0.0
0
SEQEND
5
41a
8
Layer1
0
POLYLINE
5
41b
8
Layer1
66
1
10
0.0
20
0.0
30
0.0
70
1
0
VERTEX
5
41c
8
Layer1
10
103.3891
20
17.0150
30
0.0
0
VERTEX
5
41d
8
Layer1
10
104.1847
20
16.9314
30
0.0
0
VERTEX
5
41e
8
Layer1
10
104.3415
20
18.4231
30
0.0
0
VERTEX
5
41f
8
Layer1
10
103.5459
20
18.5068
30
0.0
0
VERTEX
5
420
8
Layer1
10
104.2776
20
25.4684
30
0.0
0
VERTEX
5
421
8
Layer1
10
105.0732
20
25.3848
30
0.0
0
VERTEX
5
422
8
Layer1
10
105.2300
20
26.8766
30
0.0
0
VERTEX
5
423
8
Layer1
10
104.4344
20
26.9602
30
0.0
0
VERTEX
5
424
8
Layer1
10
104.5389
20
27.9547
30
0.0
0
VERTEX
5
425
8
Layer1
10
92.6046
20
29.2091
30
0.0
0
VERTEX
5
426
8
Layer1
10
92.5001
20
28.2145
30
0.0
0
VERTEX
5
427
8
Layer1
10
91.7045
20
28.2982
30
0.0
0
VERTEX
5
428
8
Layer1
10
91.5477
20
26.8064
30
0.0
0
VERTEX
5
429
8
Layer1
10
92.3433
20
26.7228
30
0.0
0
VERTEX
5
42a
8
Layer1
10
91.6116
20
19.7611
30
0.0
0
VERTEX
5
42b
8
Layer1
10
90.8160
20
19.8447
30
0.0
0
VERTEX
5
42c
8
Layer1
10
90.6592
20
18.3529
30
0.0
0
VERTEX
5
42d
8
Layer1
10
91.4548
20
18.2693
30
0.0
0
VERTEX
5
42e
8
Layer1
10
91.3503
20
17.2748
30
0.0
0
VERTEX
5
42f
8
Layer1
10
103.2846
20
16.0205
30
0.0
0
VERTEX
5
430
8
Layer1
10
103.3891
20
17.0150
30
0.0
0
SEQEND
5
431
8
Layer1
0
POLYLINE
5
432
8
Layer1
66
1
10
0.0
20
0.0
30
0.0
70
1
0
VERTEX
5
433
8
Layer1
10
145.6572
20
25.6467
30
0.0
0
VERTEX
5
434
8
Layer1
10
146.4299
20
25.4397
30
0.0
0
VERTEX
5
435
8
Layer1
10
146.8181
20
26.8885
30
0.0
0
VERTEX
5
436
8
Layer1
10
146.0454
20
27.0956
30
0.0
0
VERTEX
5
437
8
Layer1
10
147.8571
20
33.8571
30
0.0
0
VERTEX
5
438
8
Layer1
10
148.6299
20
33.6500
30
0.0
0
VERTEX
5
439
8
Layer1
10
149.0181
20
35.0989
30
0.0
0
VERTEX
5
43a
8
Layer1
10
148.2454
20
35.3060
30
0.0
0
VERTEX
5
43b
8
Layer1
10
148.5042
20
36.2719
30
0.0
0
VERTEX
5
43c
8
Layer1
10
136.9131
20
39.3777
30
0.0
0
VERTEX
5
43d
8
Layer1
10
136.6542
20
38.4118
30
0.0
0
VERTEX
5
43e
8
Layer1
10
135.8815
20
38.6188
30
0.0
0
VERTEX
5
43f
8
Layer1
10
135.4933
20
37.1700
30
0.0
0
VERTEX
5
440
8
Layer1
10
136.2660
20
36.9629
30
0.0
0
VERTEX
5
441
8
Layer1
10
134.4543
20
30.2014
30
0.0
0
VERTEX
5
442
8
Layer1
10
133.6815
20
30.4085
30
0.0
0
VERTEX
5
443
8
Layer1
10
133.2933
20
28.9596
30
0.0
0
VERTEX
5
444
8
Layer1
10
134.0661
20
28.7525
30
0.0
0
VERTEX
5
445
8
Layer1
10
133.8072
20
27.7866
30
0.0
0
VERTEX
5
446
8
Layer1
10
145.3983
20
24.6808
30
0.0
0
VERTEX
5
447
8
Layer1
10
145.6572
20
25.6467
30
0.0
0
SEQEND
5
448
8
Layer1
0
POLYLINE
5
449
8
Layer1
66
1
10
0.0
20
0.0
30
0.0
70
1
0
VERTEX
5
44a
8
Layer1
10
139.3849
20
18.7558
30
0.0
0
VERTEX
5
44b
8
Layer1
10
137.7670
20
19.1893
30
0.0
0
VERTEX
5
44c
8
Layer1
10
137.5600
20
18.4166
30
0.0
0
VERTEX
5
44d
8
Layer1
10
134.8795
20
19.1348
30
0.0
0
VERTEX
5
44e
8
Layer1
10
134.8873
20
19.1638
30
0.0
0
VERTEX
5
44f
8
Layer1
10
134.1145
20
19.3708
30
0.0
0
VERTEX
5
450
8
Layer1
10
134.3734
20
20.3367
30
0.0
0
VERTEX
5
451
8
Layer1
10
122.7822
20
23.4426
30
0.0
0
VERTEX
5
452
8
Layer1
10
122.5234
20
22.4766
30
0.0
0
VERTEX
5
453
8
Layer1
10
121.7507
20
22.6837
30
0.0
0
VERTEX
5
454
8
Layer1
10
121.7429
20
22.6547
30
0.0
0
VERTEX
5
455
8
Layer1
10
119.0625
20
23.3729
30
0.0
0
VERTEX
5
456
8
Layer1
10
119.2695
20
24.1457
30
0.0
0
VERTEX
5
457
8
Layer1
10
117.6516
20
24.5792
30
0.0
0
VERTEX
5
458
8
Layer1
10
117.9084
20
25.5374
30
0.0
0
VERTEX
5
459
8
Layer1
10
116.6527
20
25.8739
30
0.0
0
VERTEX
5
45a
8
Layer1
10
116.3959
20
24.9157
30
0.0
0
VERTEX
5
45b
8
Layer1
10
114.7780
20
25.3492
30
0.0
0
VERTEX
5
45c
8
Layer1
10
113.1552
20
19.2928
30
0.0
0
VERTEX
5
45d
8
Layer1
10
112.3100
20
19.5193
30
0.0
0
VERTEX
5
45e
8
Layer1
10
112.1029
20
18.7466
30
0.0
0
VERTEX
5
45f
8
Layer1
10
112.9481
20
18.5201
30
0.0
0
VERTEX
5
460
8
Layer1
10
112.1121
20
15.4002
30
0.0
0
VERTEX
5
461
8
Layer1
10
113.7301
20
14.9666
30
0.0
0
VERTEX
5
462
8
Layer1
10
113.5468
20
14.2828
30
0.0
0
VERTEX
5
463
8
Layer1
10
114.8025
20
13.9463
30
0.0
0
VERTEX
5
464
8
Layer1
10
114.9858
20
14.6302
30
0.0
0
VERTEX
5
465
8
Layer1
10
116.6037
20
14.1966
30
0.0
0
VERTEX
5
466
8
Layer1
10
116.8108
20
14.9694
30
0.0
0
VERTEX
5
467
8
Layer1
10
119.4912
20
14.2512
30
0.0
0
VERTEX
5
468
8
Layer1
10
119.1625
20
13.0244
30
0.0
0
VERTEX
5
469
8
Layer1
10
119.9352
20
12.8174
30
0.0
0
VERTEX
5
46a
8
Layer1
10
119.6764
20
11.8515
30
0.0
0
VERTEX
5
46b
8
Layer1
10
131.2675
20
8.7456
30
0.0
0
VERTEX
5
46c
8
Layer1
10
131.5263
20
9.7116
30
0.0
0
VERTEX
5
46d
8
Layer1
10
132.2991
20
9.5045
30
0.0
0
VERTEX
5
46e
8
Layer1
10
132.6278
20
10.7312
30
0.0
0
VERTEX
5
46f
8
Layer1
10
135.3082
20
10.0130
30
0.0
0
VERTEX
5
470
8
Layer1
10
135.1012
20
9.2403
30
0.0
0
VERTEX
5
471
8
Layer1
10
136.7191
20
8.8067
30
0.0
0
VERTEX
5
472
8
Layer1
10
136.5359
20
8.1229
30
0.0
0
VERTEX
5
473
8
Layer1
10
137.7916
20
7.7864
30
0.0
0
VERTEX
5
474
8
Layer1
10
137.9748
20
8.4703
30
0.0
0
VERTEX
5
475
8
Layer1
10
139.5927
20
8.0368
30
0.0
0
VERTEX
5
476
8
Layer1
10
140.4287
20
11.1567
30
0.0
0
VERTEX
5
477
8
Layer1
10
141.2739
20
10.9302
30
0.0
0
VERTEX
5
478
8
Layer1
10
141.4810
20
11.7030
30
0.0
0
VERTEX
5
479
8
Layer1
10
140.6358
20
11.9294
30
0.0
0
VERTEX
5
47a
8
Layer1
10
142.2586
20
17.9858
30
0.0
0
VERTEX
5
47b
8
Layer1
10
140.6406
20
18.4193
30
0.0
0
VERTEX
5
47c
8
Layer1
10
140.8974
20
19.3775
30
0.0
0
VERTEX
5
47d
8
Layer1
10
139.6417
20
19.7140
30
0.0
0
VERTEX
5
47e
8
Layer1
10
139.3849
20
18.7558
30
0.0
0
SEQEND
5
47f
8
Layer1
0
ENDSEC
0
EOF
