<?xml version="1.0" standalone="no"?>
 <!DOCTYPE svg PUBLIC "-//W3C//DTD SVG 1.1//EN" 
 "http://www.w3.org/Graphics/SVG/1.1/DTD/svg11.dtd"> 
<svg xmlns="http://www.w3.org/2000/svg" version="1.1" 
    width="17.333cm" height="10.6705cm" viewBox="0 0 68240 42010 ">
<title>SVG Picture created as pickle-Edge_Cuts.svg date 2020/03/22 17:33:52 </title>
  <desc>Picture generated by PCBNEW </desc>
<g style="fill:#000000; fill-opacity:1;stroke:#000000; stroke-opacity:1;
stroke-linecap:round; stroke-linejoin:round; "
 transform="translate(0 0) scale(1 1)">
</g>
<g style="fill:#000000; fill-opacity:0.0; 
stroke:#000000; stroke-width:-0.000393701; stroke-opacity:1; 
stroke-linecap:round; stroke-linejoin:round;">
</g>
<g style="fill:#000000; fill-opacity:0.0; 
stroke:#000000; stroke-width:78.7402; stroke-opacity:1; 
stroke-linecap:round; stroke-linejoin:round;">
<path d="M25964 20857
L25964 23613
" />
<path d="M25649 20857
L25964 20857
" />
<path d="M25649 20267
L25649 20857
" />
<path d="M31004 5857
L31004 5267
" />
<path d="M25964 12767
L25649 12767
" />
<path d="M25649 24204
L25964 24204
" />
<path d="M25649 23613
L25649 24204
" />
<path d="M25964 23613
L25649 23613
" />
<path d="M23189 5811
L18464 5811
" />
<path d="M13814 17641
L14129 17641
" />
<path d="M40649 9204
L40964 9204
" />
<path d="M23504 10141
L23504 9550
" />
<path d="M40964 12767
L40649 12767
" />
<path d="M23189 10535
L23189 10141
" />
<path d="M49831 31482
L49498 31393
" />
<path d="M50470 29098
L49831 31482
" />
<path d="M51107 29268
L50470 29098
" />
<path d="M51208 28892
L51107 29268
" />
<path d="M23504 9550
L23189 9550
" />
<path d="M53212 30159
L52157 29876
" />
<path d="M53215 30147
L53212 30159
" />
<path d="M53519 30229
L53215 30147
" />
<path d="M53621 29849
L53519 30229
" />
<path d="M53189 18035
L53189 17641
" />
<path d="M48464 18035
L53189 18035
" />
<path d="M38504 11829
L38189 11829
" />
<path d="M46004 12767
L45689 12767
" />
<path d="M14129 10141
L14129 9550
" />
<path d="M48464 5811
L48464 6204
" />
<path d="M33464 8266
L33464 8660
" />
<path d="M48149 13704
L48149 14295
" />
<path d="M48464 13704
L48149 13704
" />
<path d="M18149 10141
L18464 10141
" />
<path d="M14129 17641
L14129 17050
" />
<path d="M25964 5857
L25964 8613
" />
<path d="M8775 13704
L8775 14295
" />
<path d="M9090 17641
L9090 18035
" />
<path d="M45689 12373
L40964 12373
" />
<path d="M33464 19329
L33149 19329
" />
<path d="M33464 18936
L33464 19329
" />
<path d="M48149 10141
L48464 10141
" />
<path d="M9090 9550
L8775 9550
" />
<path d="M38504 12420
L38504 11829
" />
<path d="M30689 17097
L30689 16704
" />
<path d="M23504 6204
L23189 6204
" />
<path d="M40649 12767
L40649 13357
" />
<path d="M18149 6795
L18464 6795
" />
<path d="M46159 29335
L46472 29368
" />
<path d="M45871 32076
L46159 29335
" />
<path d="M46184 32109
L45871 32076
" />
<path d="M46122 32696
L46184 32109
" />
<path d="M58471 35440
L59108 35611
" />
<path d="M58553 35136
L58471 35440
" />
<path d="M57497 34853
L58553 35136
" />
<path d="M57368 35336
L57497 34853
" />
<path d="M25649 16704
L25964 16704
" />
<path d="M40964 24597
L45689 24597
" />
<path d="M40964 24204
L40964 24597
" />
<path d="M40649 24204
L40964 24204
" />
<path d="M40649 23613
L40649 24204
" />
<path d="M45689 16704
L46004 16704
" />
<path d="M13814 17050
L13814 14295
" />
<path d="M23189 21795
L23504 21795
" />
<path d="M23189 24550
L23189 21795
" />
<path d="M23504 24550
L23189 24550
" />
<path d="M23504 25141
L23504 24550
" />
<path d="M30689 12373
L25964 12373
" />
<path d="M62780 28410
L63493 25748
" />
<path d="M63084 28491
L62780 28410
" />
<path d="M62931 29062
L63084 28491
" />
<path d="M62627 28980
L62931 29062
" />
<path d="M38189 4920
L38504 4920
" />
<path d="M59602 35743
L60239 35914
" />
<path d="M59530 36013
L59602 35743
" />
<path d="M59036 35880
L59530 36013
" />
<path d="M59108 35611
L59036 35880
" />
<path d="M25964 9597
L30689 9597
" />
<path d="M25964 28080
L25649 28080
" />
<path d="M25964 27686
L25964 28080
" />
<path d="M30689 27686
L25964 27686
" />
<path d="M30689 28080
L30689 27686
" />
<path d="M48149 24550
L48149 25141
" />
<path d="M48464 24550
L48149 24550
" />
<path d="M48464 21795
L48464 24550
" />
<path d="M48149 21795
L48464 21795
" />
<path d="M14129 21795
L14129 21204
" />
<path d="M13814 21795
L14129 21795
" />
<path d="M13814 24550
L13814 21795
" />
<path d="M14129 24550
L13814 24550
" />
<path d="M25964 17097
L30689 17097
" />
<path d="M25964 8613
L25649 8613
" />
<path d="M33464 4920
L33464 7676
" />
<path d="M13814 13704
L13814 13310
" />
<path d="M40649 13357
L40964 13357
" />
<path d="M13814 6795
L14129 6795
" />
<path d="M25964 16704
L25964 17097
" />
<path d="M52196 33950
L52500 34032
" />
<path d="M52326 33467
L52196 33950
" />
<path d="M51270 33184
L52326 33467
" />
<path d="M51189 33489
L51270 33184
" />
<path d="M48149 17050
L48149 17641
" />
<path d="M48464 17050
L48149 17050
" />
<path d="M23504 6795
L23504 6204
" />
<path d="M8775 6795
L9090 6795
" />
<path d="M40964 5857
L40964 8613
" />
<path d="M46004 16113
L45689 16113
" />
<path d="M33464 19920
L33464 22676
" />
<path d="M33149 19920
L33464 19920
" />
<path d="M33149 19329
L33149 19920
" />
<path d="M14129 13704
L13814 13704
" />
<path d="M40964 16113
L40649 16113
" />
<path d="M45689 9204
L45689 9204
" />
<path d="M18149 6204
L18149 6795
" />
<path d="M53504 17641
L53504 17050
" />
<path d="M53189 17641
L53504 17641
" />
<path d="M30689 20267
L30689 19873
" />
<path d="M31004 20267
L30689 20267
" />
<path d="M31004 20857
L31004 20267
" />
<path d="M13814 10141
L13814 10141
" />
<path d="M8775 6204
L8775 6795
" />
<path d="M48464 17641
L48464 18035
" />
<path d="M48149 17641
L48464 17641
" />
<path d="M48149 6795
L48464 6795
" />
<path d="M33464 15176
L33149 15176
" />
<path d="M38504 15176
L38189 15176
" />
<path d="M57064 35255
L57368 35336
" />
<path d="M56962 35635
L57064 35255
" />
<path d="M52398 34412
L56962 35635
" />
<path d="M52500 34032
L52398 34412
" />
<path d="M18149 14295
L18464 14295
" />
<path d="M18149 13704
L18149 14295
" />
<path d="M63646 25178
L63748 24797
" />
<path d="M63950 25259
L63646 25178
" />
<path d="M63798 25829
L63950 25259
" />
<path d="M63493 25748
L63798 25829
" />
<path d="M9090 13310
L9090 13704
" />
<path d="M38189 11436
L33464 11436
" />
<path d="M46004 9204
L46004 8613
" />
<path d="M8775 9550
L8775 10141
" />
<path d="M30689 5857
L31004 5857
" />
<path d="M14129 6204
L13814 6204
" />
<path d="M46004 13357
L46004 12767
" />
<path d="M18149 21795
L18464 21795
" />
<path d="M18149 21204
L18149 21795
" />
<path d="M18464 21204
L18149 21204
" />
<path d="M18464 20810
L18464 21204
" />
<path d="M45689 13357
L46004 13357
" />
<path d="M45689 5267
L45689 4873
" />
<path d="M23504 17050
L23189 17050
" />
<path d="M23504 17641
L23504 17050
" />
<path d="M25964 12373
L25964 12767
" />
<path d="M9090 13704
L8775 13704
" />
<path d="M38504 19329
L38189 19329
" />
<path d="M38504 19920
L38504 19329
" />
<path d="M33464 8660
L38189 8660
" />
<path d="M33149 4329
L33149 4920
" />
<path d="M46004 23613
L45689 23613
" />
<path d="M46004 24204
L46004 23613
" />
<path d="M45689 24204
L46004 24204
" />
<path d="M30689 24204
L30689 24204
" />
<path d="M18464 10535
L23189 10535
" />
<path d="M9090 14295
L9090 17050
" />
<path d="M25964 16113
L25649 16113
" />
<path d="M53189 10141
L53189 10141
" />
<path d="M31004 16704
L31004 16113
" />
<path d="M53189 13704
L53189 13310
" />
<path d="M53504 13704
L53189 13704
" />
<path d="M53189 10141
L53504 10141
" />
<path d="M18464 5811
L18464 6204
" />
<path d="M48464 13310
L48464 13704
" />
<path d="M53189 13310
L48464 13310
" />
<path d="M9090 6795
L9090 9550
" />
<path d="M38189 18936
L33464 18936
" />
<path d="M38189 19329
L38189 18936
" />
<path d="M46004 20267
L45689 20267
" />
<path d="M46004 20857
L46004 20267
" />
<path d="M45689 20857
L46004 20857
" />
<path d="M45689 23613
L45689 20857
" />
<path d="M53504 6204
L53189 6204
" />
<path d="M18149 9550
L18149 10141
" />
<path d="M38189 15766
L38189 15766
" />
<path d="M9090 21795
L9090 24550
" />
<path d="M8775 21795
L9090 21795
" />
<path d="M8775 21204
L8775 21795
" />
<path d="M9090 21204
L8775 21204
" />
<path d="M41147 28809
L41460 28842
" />
<path d="M41209 28221
L41147 28809
" />
<path d="M41522 28254
L41209 28221
" />
<path d="M41563 27863
L41522 28254
" />
<path d="M30689 9204
L30689 9204
" />
<path d="M33149 7676
L33149 8266
" />
<path d="M46261 28357
L41563 27863
" />
<path d="M46220 28748
L46261 28357
" />
<path d="M46534 28781
L46220 28748
" />
<path d="M46472 29368
L46534 28781
" />
<path d="M18149 25141
L18464 25141
" />
<path d="M18149 24550
L18149 25141
" />
<path d="M18464 24550
L18149 24550
" />
<path d="M18464 21795
L18464 24550
" />
<path d="M9090 10141
L9090 10535
" />
<path d="M25964 5267
L25649 5267
" />
<path d="M31004 8613
L30689 8613
" />
<path d="M46004 8613
L45689 8613
" />
<path d="M31004 24204
L31004 23613
" />
<path d="M30689 24204
L31004 24204
" />
<path d="M38189 23266
L38189 23266
" />
<path d="M18464 10141
L18464 10535
" />
<path d="M23189 20810
L18464 20810
" />
<path d="M23189 21204
L23189 20810
" />
<path d="M23504 21204
L23189 21204
" />
<path d="M23504 21795
L23504 21204
" />
<path d="M31004 31426
L30689 31426
" />
<path d="M31004 32017
L31004 31426
" />
<path d="M30689 32017
L31004 32017
" />
<path d="M53189 25141
L53189 25141
" />
<path d="M30689 9597
L30689 9204
" />
<path d="M13814 14295
L14129 14295
" />
<path d="M53189 24550
L53189 21795
" />
<path d="M53504 24550
L53189 24550
" />
<path d="M53504 25141
L53504 24550
" />
<path d="M53189 25141
L53504 25141
" />
<path d="M14129 25141
L14129 24550
" />
<path d="M13814 25141
L14129 25141
" />
<path d="M45689 24204
L45689 24204
" />
<path d="M45689 24597
L45689 24204
" />
<path d="M33464 32017
L33464 32410
" />
<path d="M33149 32017
L33464 32017
" />
<path d="M33149 31426
L33149 32017
" />
<path d="M33464 31426
L33149 31426
" />
<path d="M23189 17641
L23189 17641
" />
<path d="M23189 18035
L23189 17641
" />
<path d="M40649 16704
L40964 16704
" />
<path d="M40964 13357
L40964 16113
" />
<path d="M31004 9204
L31004 8613
" />
<path d="M33464 3936
L33464 4329
" />
<path d="M25964 4873
L25964 5267
" />
<path d="M48464 14295
L48464 17050
" />
<path d="M48149 14295
L48464 14295
" />
<path d="M13814 6204
L13814 5811
" />
<path d="M23189 14295
L23504 14295
" />
<path d="M23189 17050
L23189 14295
" />
<path d="M33464 12420
L33464 15176
" />
<path d="M38189 11829
L38189 11436
" />
<path d="M25649 13357
L25964 13357
" />
<path d="M9090 17050
L8775 17050
" />
<path d="M23189 25141
L23504 25141
" />
<path d="M13814 25141
L13814 25141
" />
<path d="M13814 25535
L13814 25141
" />
<path d="M9090 25535
L13814 25535
" />
<path d="M23189 13310
L18464 13310
" />
<path d="M23189 13704
L23189 13310
" />
<path d="M53189 21204
L53189 20810
" />
<path d="M53504 21204
L53189 21204
" />
<path d="M53504 21795
L53504 21204
" />
<path d="M53189 21795
L53504 21795
" />
<path d="M48464 6795
L48464 9550
" />
<path d="M18464 6795
L18464 9550
" />
<path d="M53504 9550
L53189 9550
" />
<path d="M31004 16113
L30689 16113
" />
<path d="M33464 4329
L33149 4329
" />
<path d="M38189 7676
L38189 4920
" />
<path d="M53189 25535
L53189 25141
" />
<path d="M48464 25535
L53189 25535
" />
<path d="M48464 25141
L48464 25535
" />
<path d="M48149 25141
L48464 25141
" />
<path d="M33149 23266
L33464 23266
" />
<path d="M33149 22676
L33149 23266
" />
<path d="M33464 22676
L33149 22676
" />
<path d="M53189 6795
L53504 6795
" />
<path d="M60983 34471
L60650 34381
" />
<path d="M60901 34775
L60983 34471
" />
<path d="M60569 34686
L60901 34775
" />
<path d="M60239 35914
L60569 34686
" />
<path d="M45689 9597
L45689 9204
" />
<path d="M40797 32137
L41110 32170
" />
<path d="M40859 31549
L40797 32137
" />
<path d="M41172 31582
L40859 31549
" />
<path d="M41460 28842
L41172 31582
" />
<path d="M9090 6204
L8775 6204
" />
<path d="M18464 6204
L18149 6204
" />
<path d="M57912 27106
L57760 27676
" />
<path d="M58217 27187
L57912 27106
" />
<path d="M58930 24525
L58217 27187
" />
<path d="M58626 24444
L58930 24525
" />
<path d="M9090 20810
L9090 21204
" />
<path d="M13814 20810
L9090 20810
" />
<path d="M13814 21204
L13814 20810
" />
<path d="M14129 21204
L13814 21204
" />
<path d="M14129 9550
L13814 9550
" />
<path d="M33149 11829
L33149 12420
" />
<path d="M58779 23873
L58626 24444
" />
<path d="M59083 23955
L58779 23873
" />
<path d="M59185 23574
L59083 23955
" />
<path d="M63748 24797
L59185 23574
" />
<path d="M31004 5267
L30689 5267
" />
<path d="M8775 14295
L9090 14295
" />
<path d="M40964 20267
L40649 20267
" />
<path d="M40964 19873
L40964 20267
" />
<path d="M45689 19873
L40964 19873
" />
<path d="M45689 20267
L45689 19873
" />
<path d="M30689 20857
L31004 20857
" />
<path d="M30689 23613
L30689 20857
" />
<path d="M31004 23613
L30689 23613
" />
<path d="M45689 16704
L45689 16704
" />
<path d="M23189 10141
L23189 10141
" />
<path d="M53504 14295
L53504 13704
" />
<path d="M53189 14295
L53504 14295
" />
<path d="M33464 7676
L33149 7676
" />
<path d="M30689 8613
L30689 5857
" />
<path d="M25964 20267
L25649 20267
" />
<path d="M25964 19873
L25964 20267
" />
<path d="M30689 19873
L25964 19873
" />
<path d="M8775 17050
L8775 17641
" />
<path d="M38504 15766
L38504 15176
" />
<path d="M38189 15766
L38504 15766
" />
<path d="M38504 4329
L38189 4329
" />
<path d="M18464 9550
L18149 9550
" />
<path d="M40649 5267
L40649 5857
" />
<path d="M53189 9550
L53189 6795
" />
<path d="M38189 8266
L38189 8266
" />
<path d="M13814 10535
L13814 10141
" />
<path d="M13814 18035
L13814 17641
" />
<path d="M33149 12420
L33464 12420
" />
<path d="M53189 5811
L48464 5811
" />
<path d="M31004 28080
L30689 28080
" />
<path d="M31004 28670
L31004 28080
" />
<path d="M30689 28670
L31004 28670
" />
<path d="M30689 31426
L30689 28670
" />
<path d="M31004 12767
L30689 12767
" />
<path d="M14129 6795
L14129 6204
" />
<path d="M46004 16704
L46004 16113
" />
<path d="M50552 33318
L51189 33489
" />
<path d="M50480 33587
L50552 33318
" />
<path d="M49985 33455
L50480 33587
" />
<path d="M50057 33186
L49985 33455
" />
<path d="M18464 18035
L23189 18035
" />
<path d="M18464 17641
L18464 18035
" />
<path d="M38189 16160
L38189 15766
" />
<path d="M40649 8613
L40649 9204
" />
<path d="M48464 10535
L53189 10535
" />
<path d="M45689 5857
L46004 5857
" />
<path d="M40964 5267
L40649 5267
" />
<path d="M30689 9204
L31004 9204
" />
<path d="M38504 22676
L38189 22676
" />
<path d="M38504 23266
L38504 22676
" />
<path d="M13814 10141
L14129 10141
" />
<path d="M40649 5857
L40964 5857
" />
<path d="M9090 18035
L13814 18035
" />
<path d="M8775 17641
L9090 17641
" />
<path d="M23189 10141
L23504 10141
" />
<path d="M33149 15766
L33464 15766
" />
<path d="M30689 16704
L31004 16704
" />
<path d="M25964 13357
L25964 16113
" />
<path d="M13814 9550
L13814 6795
" />
<path d="M25964 9204
L25964 9597
" />
<path d="M30689 5267
L30689 4873
" />
<path d="M40964 4873
L40964 5267
" />
<path d="M33464 16160
L38189 16160
" />
<path d="M13814 13310
L9090 13310
" />
<path d="M23189 9550
L23189 6795
" />
<path d="M25964 32410
L30689 32410
" />
<path d="M25964 32017
L25964 32410
" />
<path d="M25649 32017
L25964 32017
" />
<path d="M25649 31426
L25649 32017
" />
<path d="M18464 13704
L18149 13704
" />
<path d="M18464 13310
L18464 13704
" />
<path d="M48464 9550
L48149 9550
" />
<path d="M5039 39078
L5039 39078
" />
<path d="M60753 31449
L60259 31317
" />
<path d="M60652 31826
L60753 31449
" />
<path d="M61289 31997
L60652 31826
" />
<path d="M60650 34381
L61289 31997
" />
<path d="M40964 23613
L40649 23613
" />
<path d="M40964 20857
L40964 23613
" />
<path d="M40649 20857
L40964 20857
" />
<path d="M40649 20267
L40649 20857
" />
<path d="M30689 13357
L31004 13357
" />
<path d="M48149 6204
L48149 6795
" />
<path d="M33149 15176
L33149 15766
" />
<path d="M45689 8613
L45689 5857
" />
<path d="M30689 16113
L30689 13357
" />
<path d="M49420 33015
L50057 33186
" />
<path d="M49749 31787
L49420 33015
" />
<path d="M49417 31698
L49749 31787
" />
<path d="M49498 31393
L49417 31698
" />
<path d="M59439 31827
L58384 31545
" />
<path d="M59521 31523
L59439 31827
" />
<path d="M60158 31694
L59521 31523
" />
<path d="M62627 28980
L62627 28980
" />
<path d="M45809 32664
L46122 32696
" />
<path d="M38189 32017
L38189 32017
" />
<path d="M38189 32410
L38189 32017
" />
<path d="M33464 32410
L38189 32410
" />
<path d="M45809 32664
L45809 32664
" />
<path d="M45768 33055
L45809 32664
" />
<path d="M41069 32561
L45768 33055
" />
<path d="M41110 32170
L41069 32561
" />
<path d="M25964 31426
L25649 31426
" />
<path d="M25964 28670
L25964 31426
" />
<path d="M25649 28670
L25964 28670
" />
<path d="M25649 28080
L25649 28670
" />
<path d="M9090 25141
L9090 25535
" />
<path d="M8775 25141
L9090 25141
" />
<path d="M8775 24550
L8775 25141
" />
<path d="M9090 24550
L8775 24550
" />
<path d="M62525 29361
L62627 28980
" />
<path d="M57962 28138
L62525 29361
" />
<path d="M58064 27758
L57962 28138
" />
<path d="M57760 27676
L58064 27758
" />
<path d="M33464 15766
L33464 16160
" />
<path d="M53504 6795
L53504 6204
" />
<path d="M38504 4920
L38504 4329
" />
<path d="M38189 23660
L38189 23266
" />
<path d="M33464 23660
L38189 23660
" />
<path d="M33464 23266
L33464 23660
" />
<path d="M31004 13357
L31004 12767
" />
<path d="M25649 16113
L25649 16704
" />
<path d="M46004 5857
L46004 5267
" />
<path d="M33464 28670
L33464 31426
" />
<path d="M33149 28670
L33464 28670
" />
<path d="M33149 28080
L33149 28670
" />
<path d="M33464 28080
L33149 28080
" />
<path d="M38504 32017
L38504 31426
" />
<path d="M38189 32017
L38504 32017
" />
<path d="M30689 32017
L30689 32017
" />
<path d="M30689 32410
L30689 32017
" />
<path d="M33464 27686
L33464 28080
" />
<path d="M38189 27686
L33464 27686
" />
<path d="M38189 28080
L38189 27686
" />
<path d="M38504 28080
L38189 28080
" />
<path d="M38504 28670
L38504 28080
" />
<path d="M38189 28670
L38504 28670
" />
<path d="M38189 31426
L38189 28670
" />
<path d="M38504 31426
L38189 31426
" />
<path d="M48149 9550
L48149 10141
" />
<path d="M23189 6204
L23189 5811
" />
<path d="M48464 10141
L48464 10535
" />
<path d="M18464 17050
L18149 17050
" />
<path d="M18464 14295
L18464 17050
" />
<path d="M14129 14295
L14129 13704
" />
<path d="M13814 5811
L9090 5811
" />
<path d="M46004 5267
L45689 5267
" />
<path d="M38504 8266
L38504 7676
" />
<path d="M33464 11436
L33464 11829
" />
<path d="M38189 8266
L38504 8266
" />
<path d="M53189 17050
L53189 14295
" />
<path d="M53504 17050
L53189 17050
" />
<path d="M9090 10535
L13814 10535
" />
<path d="M38189 12420
L38504 12420
" />
<path d="M25649 9204
L25964 9204
" />
<path d="M48149 21204
L48149 21795
" />
<path d="M48464 21204
L48149 21204
" />
<path d="M48464 20810
L48464 21204
" />
<path d="M53189 20810
L48464 20810
" />
<path d="M14129 17050
L13814 17050
" />
<path d="M40649 16113
L40649 16704
" />
<path d="M45689 16113
L45689 13357
" />
<path d="M38189 4329
L38189 3936
" />
<path d="M40964 8613
L40649 8613
" />
<path d="M30689 12767
L30689 12373
" />
<path d="M40964 17097
L45689 17097
" />
<path d="M18149 17641
L18464 17641
" />
<path d="M18149 17050
L18149 17641
" />
<path d="M38189 19920
L38504 19920
" />
<path d="M38189 22676
L38189 19920
" />
<path d="M45689 4873
L40964 4873
" />
<path d="M38189 8660
L38189 8266
" />
<path d="M60158 31694
L60158 31694
" />
<path d="M60259 31317
L60158 31694
" />
<path d="M23189 17641
L23504 17641
" />
<path d="M13814 17641
L13814 17641
" />
<path d="M53504 10141
L53504 9550
" />
<path d="M53189 10535
L53189 10141
" />
<path d="M30689 24597
L30689 24204
" />
<path d="M25964 24597
L30689 24597
" />
<path d="M25964 24204
L25964 24597
" />
<path d="M30689 4873
L25964 4873
" />
<path d="M33149 8266
L33464 8266
" />
<path d="M45689 17097
L45689 16704
" />
<path d="M40964 9597
L45689 9597
" />
<path d="M48464 6204
L48149 6204
" />
<path d="M23189 25141
L23189 25141
" />
<path d="M23189 25535
L23189 25141
" />
<path d="M18464 25535
L23189 25535
" />
<path d="M18464 25141
L18464 25535
" />
<path d="M58185 31071
L53621 29849
" />
<path d="M58083 31452
L58185 31071
" />
<path d="M58387 31533
L58083 31452
" />
<path d="M58384 31545
L58387 31533
" />
<path d="M23189 6795
L23504 6795
" />
<path d="M33464 11829
L33149 11829
" />
<path d="M33149 4920
L33464 4920
" />
<path d="M45689 12767
L45689 12373
" />
<path d="M45689 9204
L46004 9204
" />
<path d="M38189 3936
L33464 3936
" />
<path d="M38189 15176
L38189 12420
" />
<path d="M25649 8613
L25649 9204
" />
<path d="M38504 7676
L38189 7676
" />
<path d="M25649 5267
L25649 5857
" />
<path d="M9090 5811
L9090 6204
" />
<path d="M23504 13704
L23189 13704
" />
<path d="M23504 14295
L23504 13704
" />
<path d="M40964 12373
L40964 12767
" />
<path d="M25649 12767
L25649 13357
" />
<path d="M8775 10141
L9090 10141
" />
<path d="M51702 29024
L51208 28892
" />
<path d="M51601 29401
L51702 29024
" />
<path d="M52238 29572
L51601 29401
" />
<path d="M52157 29876
L52238 29572
" />
<path d="M40964 16704
L40964 17097
" />
<path d="M40964 9204
L40964 9597
" />
<path d="M38189 23266
L38504 23266
" />
<path d="M53189 17641
L53189 17641
" />
<path d="M25649 5857
L25964 5857
" />
<path d="M30689 16704
L30689 16704
" />
<path d="M53189 6204
L53189 5811
" />
</g>
<g style="fill:#000000; fill-opacity:0.0; 
stroke:#000000; stroke-width:19.685; stroke-opacity:1; 
stroke-linecap:round; stroke-linejoin:round;">
<path d="M54595 4564
L54595 20814
" />
<path d="M24439.2 4407.97 A156.197 156.197 0.0 0 0 24595.4 4251.78 " />
<path d="M24751.7 3470.52 A156.25 156.25 0.0 0 0 24595.4 3626.77 " />
<path d="M31939.2 3470.47 A156.199 156.199 0.0 0 0 32095.4 3314.27 " />
<path d="M32251.7 2533.02 A156.25 156.25 0.0 0 0 32095.4 2689.27 " />
<path d="M39595.5 2689.27 A156.25 156.25 0.0 0 0 39439.2 2533.02 " />
<path d="M39595.5 3314.27 A156.25 156.25 0.0 0 0 39751.7 3470.52 " />
<path d="M47095.3 3626.77 A156.08 156.08 0.0 0 0 46939.2 3470.69 " />
<path d="M47095.3 4251.78 A156.42 156.42 0.0 0 0 47251.7 4408.2 " />
<path d="M54595.5 4564.28 A156.042 156.042 0.0 0 0 54439.5 4408.23 " />
<path d="M65473.1 24022.8 A247.053 247.053 0.0 0 0 65298.6 23704.9 " />
<path d="M61392.4 38392.5 A247.053 247.053 0.0 0 0 61704.9 38236.2 " />
<path d="M5845.37 26751.8 A156.25 156.25 0.0 0 0 6001.62 26908.1 " />
<path d="M6001.62 4408.03 A156.25 156.25 0.0 0 0 5845.37 4564.28 " />
<path d="M39595 33783
L47095 34564
" />
<path d="M5845 4564
L5845 26751
" />
<path d="M65298 23704
L54595 20814
" />
<path d="M39595 33783
L24595 33783
" />
<path d="M61392 38392
L47095 34564
" />
<path d="M65473 24022
L61704 38236
" />
<path d="M17095 26907
L24595 33783
" />
<path d="M6001 26908
L17095 26907
" />
<path d="M24439 4407
L6001 4408
" />
<path d="M24595 3626
L24595 4251
" />
<path d="M31939 3470
L24751 3470
" />
<path d="M32095 3314
L32095 2689
" />
<path d="M39439 2533
L32251 2533
" />
<path d="M39595 3314
L39595 2689
" />
<path d="M46939 3470
L39751 3470
" />
<path d="M47095 4251
L47095 3626
" />
<path d="M54439 4408
L47251 4408
" />
<g >
</g>
<g >
</g>
<g >
</g>
<g >
</g>
<g >
</g>
<g >
</g>
<g >
</g>
<g >
</g>
<g >
</g>
<g >
</g>
<g >
</g>
<g >
</g>
<g >
</g>
<g >
</g>
<g >
</g>
<g >
</g>
<g >
</g>
<g >
</g>
<g >
</g>
<g >
</g>
<g >
</g>
<g >
</g>
<g >
</g>
<g >
</g>
<g >
</g>
<g >
</g>
<g >
</g>
<g >
</g>
<g >
</g>
<g >
</g>
<g >
</g>
<g >
</g>
<g >
</g>
<g >
</g>
<g >
</g>
<g >
</g>
<g >
</g>
<g >
</g>
<g >
</g>
<g >
</g>
<g >
</g>
<g >
</g>
<g >
</g>
<g >
</g>
<g >
</g>
<g >
</g>
<g >
</g>
<g >
</g>
<g >
</g>
<g >
</g>
<g >
</g>
<g >
</g>
<g >
</g>
<g >
</g>
<g >
</g>
</g> 
</svg>
